<svg width="101" height="16" viewBox="0 0 101 16" fill="none" xmlns="http://www.w3.org/2000/svg">
<path d="M7.92 13.36C8.68 13.36 9.38667 13.28 10.04 13.12C10.6933 12.96 11.2733 12.7467 11.78 12.48C12.1267 12.2933 12.4467 12.26 12.74 12.38C13.0467 12.4867 13.2733 12.7 13.42 13.02C13.58 13.3667 13.6133 13.6933 13.52 14C13.44 14.3067 13.22 14.5533 12.86 14.74C12.2067 15.0867 11.44 15.3467 10.56 15.52C9.69333 15.7067 8.78 15.8 7.82 15.8C6.66 15.8 5.6 15.62 4.64 15.26C3.69333 14.9 2.87333 14.3867 2.18 13.72C1.48667 13.0533 0.946667 12.2467 0.56 11.3C0.186667 10.3533 1.49012e-08 9.28667 1.49012e-08 8.1C1.49012e-08 6.91333 0.186667 5.84667 0.56 4.9C0.946667 3.95333 1.48667 3.14667 2.18 2.48C2.87333 1.81333 3.69333 1.3 4.64 0.939999C5.6 0.579999 6.66 0.399999 7.82 0.399999C8.71333 0.399999 9.54 0.493332 10.3 0.679999C11.0733 0.853332 11.7867 1.11333 12.44 1.46C12.84 1.67333 13.0733 1.94 13.14 2.26C13.2067 2.58 13.16 2.90667 13 3.24C12.8533 3.53333 12.6267 3.74 12.32 3.86C12.0267 3.96667 11.72 3.92667 11.4 3.74C10.92 3.47333 10.3867 3.26 9.8 3.1C9.21333 2.92667 8.58667 2.84 7.92 2.84C7.21333 2.84 6.56 2.96667 5.96 3.22C5.36 3.46 4.84 3.81333 4.4 4.28C3.96 4.73333 3.61333 5.28667 3.36 5.94C3.12 6.58 3 7.3 3 8.1C3 8.9 3.12 9.62667 3.36 10.28C3.61333 10.92 3.96 11.4733 4.4 11.94C4.84 12.3933 5.36 12.7467 5.96 13C6.56 13.24 7.21333 13.36 7.92 13.36ZM22.8991 15.8C21.7524 15.8 20.6924 15.62 19.7191 15.26C18.7591 14.9 17.9324 14.3867 17.2391 13.72C16.5457 13.0533 16.0057 12.2467 15.6191 11.3C15.2324 10.3533 15.0391 9.28667 15.0391 8.1C15.0391 6.91333 15.2324 5.84667 15.6191 4.9C16.0057 3.95333 16.5457 3.14667 17.2391 2.48C17.9324 1.81333 18.7591 1.3 19.7191 0.939999C20.6924 0.579999 21.7524 0.399999 22.8991 0.399999C24.0457 0.399999 25.0991 0.579999 26.0591 0.939999C27.0324 1.3 27.8657 1.81333 28.5591 2.48C29.2524 3.14667 29.7924 3.95333 30.1791 4.9C30.5657 5.84667 30.7591 6.91333 30.7591 8.1C30.7591 9.28667 30.5657 10.3533 30.1791 11.3C29.7924 12.2467 29.2524 13.0533 28.5591 13.72C27.8657 14.3867 27.0324 14.9 26.0591 15.26C25.0991 15.62 24.0457 15.8 22.8991 15.8ZM22.8991 13.36C23.5791 13.36 24.2124 13.24 24.7991 13C25.3991 12.7467 25.9191 12.3933 26.3591 11.94C26.7991 11.4733 27.1391 10.92 27.3791 10.28C27.6324 9.62667 27.7591 8.9 27.7591 8.1C27.7591 7.3 27.6324 6.58 27.3791 5.94C27.1391 5.28667 26.7991 4.73333 26.3591 4.28C25.9191 3.81333 25.3991 3.46 24.7991 3.22C24.2124 2.96667 23.5791 2.84 22.8991 2.84C22.2191 2.84 21.5791 2.96667 20.9791 3.22C20.3924 3.46 19.8791 3.81333 19.4391 4.28C18.9991 4.73333 18.6524 5.28667 18.3991 5.94C18.1591 6.58 18.0391 7.3 18.0391 8.1C18.0391 8.9 18.1591 9.62667 18.3991 10.28C18.6524 10.92 18.9991 11.4733 19.4391 11.94C19.8791 12.3933 20.3924 12.7467 20.9791 13C21.5791 13.24 22.2191 13.36 22.8991 13.36ZM35.0139 0.499999C35.5472 0.499999 35.9806 0.619999 36.3139 0.859999C36.6472 1.08667 36.9339 1.41333 37.1739 1.84L42.3539 11V1.54C42.3539 1.20667 42.4806 0.953332 42.7339 0.779999C42.9872 0.593332 43.3406 0.499999 43.7939 0.499999C44.2472 0.499999 44.6006 0.593332 44.8539 0.779999C45.1072 0.966665 45.2339 1.23333 45.2339 1.58V14.12C45.2339 14.6267 45.0806 15.02 44.7739 15.3C44.4806 15.5667 44.0472 15.7 43.4739 15.7C42.9406 15.7 42.5072 15.5867 42.1739 15.36C41.8406 15.12 41.5539 14.7867 41.3139 14.36L36.1339 5.2V14.66C36.1339 14.9933 36.0072 15.2533 35.7539 15.44C35.5006 15.6133 35.1472 15.7 34.6939 15.7C34.2406 15.7 33.8872 15.6067 33.6339 15.42C33.3806 15.2333 33.2539 14.9667 33.2539 14.62V2.08C33.2539 1.57333 33.4006 1.18667 33.6939 0.919999C34.0006 0.639999 34.4406 0.499999 35.0139 0.499999ZM54.9944 3.1V14.44C54.9944 14.84 54.8677 15.1533 54.6144 15.38C54.361 15.5933 53.9877 15.7 53.4944 15.7C53.001 15.7 52.6277 15.5933 52.3744 15.38C52.121 15.1533 51.9944 14.84 51.9944 14.44V3.1H48.3744C48.0277 3.1 47.7477 2.99333 47.5344 2.78C47.3344 2.56667 47.2344 2.27333 47.2344 1.9C47.2344 1.54 47.3344 1.25333 47.5344 1.04C47.7477 0.813333 48.0277 0.7 48.3744 0.7H58.6544C59.001 0.7 59.2744 0.813333 59.4744 1.04C59.6877 1.25333 59.7944 1.54 59.7944 1.9C59.7944 2.27333 59.6877 2.56667 59.4744 2.78C59.2744 2.99333 59.001 3.1 58.6544 3.1H54.9944ZM71.9875 15.54C71.5875 15.7 71.1942 15.7267 70.8075 15.62C70.4208 15.5133 70.1608 15.2867 70.0275 14.94L68.9075 11.96H62.9675L61.8475 14.94C61.7142 15.2867 61.4608 15.5133 61.0875 15.62C60.7275 15.74 60.3275 15.72 59.8875 15.56C59.4608 15.4133 59.1875 15.1733 59.0675 14.84C58.9475 14.4933 58.9675 14.1467 59.1275 13.8L64.1675 1.42C64.3008 1.11333 64.5075 0.866666 64.7875 0.679999C65.0675 0.493332 65.4475 0.399999 65.9275 0.399999C66.4075 0.399999 66.7875 0.493332 67.0675 0.679999C67.3475 0.866666 67.5542 1.11333 67.6875 1.42L72.7275 13.8C72.8875 14.1467 72.9008 14.4867 72.7675 14.82C72.6342 15.14 72.3742 15.38 71.9875 15.54ZM63.8675 9.56H68.0075L65.9275 4.04L63.8675 9.56ZM81.2794 13.36C82.0394 13.36 82.746 13.28 83.3994 13.12C84.0527 12.96 84.6327 12.7467 85.1394 12.48C85.486 12.2933 85.806 12.26 86.0994 12.38C86.406 12.4867 86.6327 12.7 86.7794 13.02C86.9394 13.3667 86.9727 13.6933 86.8794 14C86.7994 14.3067 86.5794 14.5533 86.2194 14.74C85.566 15.0867 84.7994 15.3467 83.9194 15.52C83.0527 15.7067 82.1394 15.8 81.1794 15.8C80.0194 15.8 78.9594 15.62 77.9994 15.26C77.0527 14.9 76.2327 14.3867 75.5394 13.72C74.846 13.0533 74.306 12.2467 73.9194 11.3C73.546 10.3533 73.3594 9.28667 73.3594 8.1C73.3594 6.91333 73.546 5.84667 73.9194 4.9C74.306 3.95333 74.846 3.14667 75.5394 2.48C76.2327 1.81333 77.0527 1.3 77.9994 0.939999C78.9594 0.579999 80.0194 0.399999 81.1794 0.399999C82.0727 0.399999 82.8994 0.493332 83.6594 0.679999C84.4327 0.853332 85.146 1.11333 85.7994 1.46C86.1994 1.67333 86.4327 1.94 86.4994 2.26C86.566 2.58 86.5194 2.90667 86.3594 3.24C86.2127 3.53333 85.986 3.74 85.6794 3.86C85.386 3.96667 85.0794 3.92667 84.7594 3.74C84.2794 3.47333 83.746 3.26 83.1594 3.1C82.5727 2.92667 81.946 2.84 81.2794 2.84C80.5727 2.84 79.9194 2.96667 79.3194 3.22C78.7194 3.46 78.1994 3.81333 77.7594 4.28C77.3194 4.73333 76.9727 5.28667 76.7194 5.94C76.4794 6.58 76.3594 7.3 76.3594 8.1C76.3594 8.9 76.4794 9.62667 76.7194 10.28C76.9727 10.92 77.3194 11.4733 77.7594 11.94C78.1994 12.3933 78.7194 12.7467 79.3194 13C79.9194 13.24 80.5727 13.36 81.2794 13.36ZM95.6584 3.1V14.44C95.6584 14.84 95.5318 15.1533 95.2784 15.38C95.0251 15.5933 94.6518 15.7 94.1584 15.7C93.6651 15.7 93.2918 15.5933 93.0384 15.38C92.7851 15.1533 92.6584 14.84 92.6584 14.44V3.1H89.0384C88.6918 3.1 88.4118 2.99333 88.1984 2.78C87.9984 2.56667 87.8984 2.27333 87.8984 1.9C87.8984 1.54 87.9984 1.25333 88.1984 1.04C88.4118 0.813333 88.6918 0.7 89.0384 0.7H99.3184C99.6651 0.7 99.9384 0.813333 100.138 1.04C100.352 1.25333 100.458 1.54 100.458 1.9C100.458 2.27333 100.352 2.56667 100.138 2.78C99.9384 2.99333 99.6651 3.1 99.3184 3.1H95.6584Z" fill="#FFDC70"/>
</svg>
