<svg width="93" height="24" viewBox="0 0 93 24" fill="none" xmlns="http://www.w3.org/2000/svg">
<path d="M2.5 23.3C1.82 23.3 1.27 23.16 0.85 22.88C0.45 22.6 0.25 22.2 0.25 21.68V2.12C0.25 1.6 0.45 1.2 0.85 0.919998C1.27 0.639998 1.82 0.499998 2.5 0.499998C3.18 0.499998 3.72 0.639998 4.12 0.919998C4.54 1.18 4.75 1.56 4.75 2.06V9.68H13.45V2.12C13.45 1.6 13.65 1.2 14.05 0.919998C14.47 0.639998 15.02 0.499998 15.7 0.499998C16.38 0.499998 16.92 0.639998 17.32 0.919998C17.74 1.18 17.95 1.56 17.95 2.06V21.74C17.95 22.24 17.74 22.63 17.32 22.91C16.92 23.17 16.38 23.3 15.7 23.3C15.02 23.3 14.47 23.16 14.05 22.88C13.65 22.6 13.45 22.2 13.45 21.68V13.28H4.75V21.74C4.75 22.24 4.54 22.63 4.12 22.91C3.72 23.17 3.18 23.3 2.5 23.3ZM33.497 23.45C31.777 23.45 30.187 23.18 28.727 22.64C27.287 22.1 26.047 21.33 25.007 20.33C23.967 19.33 23.157 18.12 22.577 16.7C21.997 15.28 21.707 13.68 21.707 11.9C21.707 10.12 21.997 8.52 22.577 7.1C23.157 5.68 23.967 4.47 25.007 3.47C26.047 2.47 27.287 1.7 28.727 1.16C30.187 0.619998 31.777 0.349998 33.497 0.349998C35.217 0.349998 36.797 0.619998 38.237 1.16C39.697 1.7 40.947 2.47 41.987 3.47C43.027 4.47 43.837 5.68 44.417 7.1C44.997 8.52 45.287 10.12 45.287 11.9C45.287 13.68 44.997 15.28 44.417 16.7C43.837 18.12 43.027 19.33 41.987 20.33C40.947 21.33 39.697 22.1 38.237 22.64C36.797 23.18 35.217 23.45 33.497 23.45ZM33.497 19.79C34.517 19.79 35.467 19.61 36.347 19.25C37.247 18.87 38.027 18.34 38.687 17.66C39.347 16.96 39.857 16.13 40.217 15.17C40.597 14.19 40.787 13.1 40.787 11.9C40.787 10.7 40.597 9.62 40.217 8.66C39.857 7.68 39.347 6.85 38.687 6.17C38.027 5.47 37.247 4.94 36.347 4.58C35.467 4.2 34.517 4.01 33.497 4.01C32.477 4.01 31.517 4.2 30.617 4.58C29.737 4.94 28.967 5.47 28.307 6.17C27.647 6.85 27.127 7.68 26.747 8.66C26.387 9.62 26.207 10.7 26.207 11.9C26.207 13.1 26.387 14.19 26.747 15.17C27.127 16.13 27.647 16.96 28.307 17.66C28.967 18.34 29.737 18.87 30.617 19.25C31.517 19.61 32.477 19.79 33.497 19.79ZM63.7293 21.17C63.5293 21.83 63.1793 22.33 62.6793 22.67C62.1993 22.99 61.6193 23.15 60.9393 23.15C60.2593 23.15 59.6693 22.99 59.1693 22.67C58.6893 22.33 58.3493 21.83 58.1493 21.17L53.4393 6.62L52.1193 21.77C52.0993 22.35 51.8693 22.78 51.4293 23.06C50.9893 23.36 50.4493 23.49 49.8093 23.45C49.1693 23.41 48.6793 23.22 48.3393 22.88C47.9993 22.54 47.8593 22.07 47.9193 21.47L49.8393 2.78C49.9193 2.08 50.2093 1.5 50.7093 1.04C51.2093 0.579998 51.9393 0.349998 52.8993 0.349998C53.8593 0.349998 54.5793 0.559999 55.0593 0.979999C55.5393 1.38 55.8893 1.93 56.1093 2.63L60.9393 17.36L65.7693 2.63C65.9893 1.93 66.3393 1.38 66.8193 0.979999C67.2993 0.559999 68.0193 0.349998 68.9793 0.349998C69.9393 0.349998 70.6693 0.579998 71.1693 1.04C71.6693 1.5 71.9593 2.08 72.0393 2.78L73.9593 21.53C74.0193 22.11 73.8693 22.56 73.5093 22.88C73.1693 23.2 72.6793 23.39 72.0393 23.45C71.3593 23.51 70.8093 23.39 70.3893 23.09C69.9893 22.81 69.7793 22.37 69.7593 21.77L68.4393 6.65L63.7293 21.17ZM81.8894 17.84C81.8894 18.2 81.9494 18.5 82.0694 18.74C82.1894 18.98 82.3894 19.17 82.6694 19.31C82.9494 19.45 83.3194 19.55 83.7794 19.61C84.2594 19.67 84.8494 19.7 85.5494 19.7C86.4494 19.7 87.3194 19.64 88.1594 19.52C89.0194 19.4 89.7594 19.26 90.3794 19.1C90.9594 18.94 91.4294 18.98 91.7894 19.22C92.1694 19.46 92.4294 19.83 92.5694 20.33C92.7094 20.85 92.6894 21.32 92.5094 21.74C92.3494 22.16 92.0194 22.45 91.5194 22.61C90.7594 22.87 89.8594 23.07 88.8194 23.21C87.7794 23.37 86.6894 23.45 85.5494 23.45C84.0694 23.45 82.8094 23.36 81.7694 23.18C80.7494 23.02 79.9094 22.76 79.2494 22.4C78.6094 22.02 78.1394 21.53 77.8394 20.93C77.5394 20.33 77.3894 19.6 77.3894 18.74V3.35C77.3894 1.65 78.2394 0.8 79.9394 0.8H90.1994C90.7194 0.8 91.1294 0.959999 91.4294 1.28C91.7494 1.6 91.9094 2.04 91.9094 2.6C91.9094 3.14 91.7494 3.58 91.4294 3.92C91.1294 4.24 90.7194 4.4 90.1994 4.4H81.8894V9.83H89.3594C89.8794 9.83 90.2894 9.99 90.5894 10.31C90.9094 10.63 91.0694 11.07 91.0694 11.63C91.0694 12.17 90.9094 12.61 90.5894 12.95C90.2894 13.27 89.8794 13.43 89.3594 13.43H81.8894V17.84Z" fill="#826BAF"/>
</svg>
