<?xml version="1.0" encoding="utf-8"?>
<!-- Generator: Adobe Illustrator 16.0.0, SVG Export Plug-In . SVG Version: 6.00 Build 0)  -->
<!DOCTYPE svg PUBLIC "-//W3C//DTD SVG 1.1//EN" "http://www.w3.org/Graphics/SVG/1.1/DTD/svg11.dtd">
<svg version="1.1" id="Layer_1" xmlns="http://www.w3.org/2000/svg" xmlns:xlink="http://www.w3.org/1999/xlink" x="0px" y="0px"
	 width="52px" height="51px" viewBox="0 0 52 51" enable-background="new 0 0 52 51" xml:space="preserve">
<g>
	
		<image overflow="visible" opacity="0.75" enable-background="new    " width="61" height="61" xlink:href="AA77CF9E.png"  transform="matrix(0.9228 -0.3853 0.3853 0.9228 -13.8975 9.106)">
	</image>
	<g>
		<path fill="#FFDC70" d="M19.647,13.312c-0.103-1.256,1.461-1.909,2.282-0.953l5.771,6.72c0.367,0.428,0.968,0.569,1.487,0.353
			l8.173-3.413c1.163-0.485,2.267,0.8,1.613,1.875l-4.608,7.567c-0.293,0.479-0.242,1.096,0.124,1.522l5.772,6.72
			c0.82,0.955-0.062,2.402-1.286,2.113l-8.62-2.044c-0.549-0.132-1.117,0.106-1.409,0.588l-4.608,7.567
			c-0.655,1.074-2.304,0.684-2.405-0.571l-0.72-8.83c-0.046-0.561-0.449-1.029-0.996-1.158l-8.621-2.045
			c-1.225-0.29-1.362-1.979-0.201-2.465l8.175-3.413c0.52-0.217,0.84-0.744,0.795-1.305L19.647,13.312z"/>
	</g>
</g>
</svg>
