<?xml version="1.0" encoding="utf-8"?>
<!-- Generator: Adobe Illustrator 16.0.0, SVG Export Plug-In . SVG Version: 6.00 Build 0)  -->
<!DOCTYPE svg PUBLIC "-//W3C//DTD SVG 1.1//EN" "http://www.w3.org/Graphics/SVG/1.1/DTD/svg11.dtd">
<svg version="1.1" id="Layer_1" xmlns="http://www.w3.org/2000/svg" xmlns:xlink="http://www.w3.org/1999/xlink" x="0px" y="0px"
	 width="100px" height="100px" viewBox="0 0 100 100" enable-background="new 0 0 100 100" xml:space="preserve">
<g>
	<path fill="#826BAF" d="M50,0C22.386,0,0,22.386,0,50s22.386,50,50,50c27.614,0,50-22.386,50-50S77.613,0,50,0z M50,94
		C25.738,94,6,74.262,6,50S25.738,6,50,6c24.262,0,44,19.738,44,44S74.262,94,50,94z"/>
	<path fill="#826BAF" d="M80.547,62.092L52.121,33.666c-1.172-1.172-3.071-1.172-4.242,0L19.453,62.092
		c-1.172,1.171-1.172,3.071,0,4.242c0.585,0.586,1.354,0.879,2.121,0.879s1.536-0.293,2.121-0.879L50,40.029l26.305,26.305
		c0.586,0.586,1.354,0.879,2.121,0.879s1.535-0.293,2.121-0.879C81.719,65.163,81.719,63.263,80.547,62.092z"/>
</g>
</svg>
