<?xml version="1.0" encoding="utf-8"?>
<!-- Generator: Adobe Illustrator 16.0.0, SVG Export Plug-In . SVG Version: 6.00 Build 0)  -->
<!DOCTYPE svg PUBLIC "-//W3C//DTD SVG 1.1//EN" "http://www.w3.org/Graphics/SVG/1.1/DTD/svg11.dtd">
<svg version="1.1" id="Layer_1" xmlns="http://www.w3.org/2000/svg" xmlns:xlink="http://www.w3.org/1999/xlink" x="0px" y="0px"
	 width="100px" height="100px" viewBox="0 0 100 100" enable-background="new 0 0 100 100" xml:space="preserve">
<g display="none">
	<g display="inline">
		<path fill="#FFFFFF" d="M78.51,62.855c0.112,15.762-12.777,28.539-28.539,28.539c-11.587,0-23.614-7.814-27.033-19.183
			c-3.189-10.603-0.918-20.096,4.896-29.242c2.233-3.513,4.992-6.753,7.886-9.739c11.514-11.882,5.625-24.625,5.625-24.625
			s31.576,17.896,20.138,35.904c0,0,8.111-0.654,9.4-6.908C70.884,37.601,78.435,52.323,78.51,62.855z"/>
		<path fill="#231F20" d="M49.971,92.895c-12.758,0-24.997-8.706-28.47-20.251c-3.093-10.28-1.435-20.25,5.067-30.479
			c2.048-3.222,4.689-6.485,8.074-9.979c10.674-11.016,5.395-22.833,5.34-22.952c-0.273-0.591-0.133-1.292,0.346-1.733
			c0.48-0.441,1.189-0.521,1.756-0.202c0.793,0.45,19.46,11.165,22.864,24.801c0.885,3.545,0.663,6.974-0.656,10.233
			c2.053-0.721,4.531-2.172,5.122-5.036c0.128-0.624,0.636-1.098,1.267-1.184c0.625-0.088,1.245,0.235,1.537,0.802
			c0.314,0.614,7.714,15.164,7.791,25.928c0.057,7.961-3.017,15.472-8.652,21.148C65.657,89.733,58.063,92.895,49.971,92.895z
			 M43.87,11.977c0.955,5,1.045,13.921-7.072,22.298c-3.242,3.345-5.759,6.453-7.697,9.5c-6.09,9.58-7.591,18.479-4.726,28.006
			c3.106,10.326,14.11,18.114,25.597,18.114c7.286,0,14.125-2.847,19.257-8.016c5.068-5.105,7.832-11.857,7.781-19.013
			c-0.052-7.312-3.931-16.903-6.074-21.654c-2.979,4.225-9.021,4.768-9.332,4.792c-0.558,0.053-1.11-0.233-1.404-0.721
			c-0.294-0.487-0.287-1.099,0.018-1.579c2.191-3.449,2.787-7.005,1.823-10.873C59.763,23.698,49.287,15.627,43.87,11.977z"/>
	</g>
	<g display="inline">
		<path fill="#FFFFFF" d="M49.492,86.73c0,0-22.579-7.686-6.631-28.546c5.643-7.38,5.522-13.675,5.522-13.675
			S76.294,63.612,49.492,86.73z"/>
		<path fill="#231F20" d="M49.492,88.23c-0.162,0-0.325-0.026-0.483-0.08c-0.413-0.141-10.15-3.543-12.735-12.048
			c-1.699-5.59,0.117-11.925,5.395-18.829c5.215-6.82,5.215-12.684,5.214-12.742c-0.006-0.559,0.3-1.078,0.793-1.342
			c0.493-0.264,1.092-0.234,1.554,0.082c0.516,0.353,12.646,8.797,13.36,21.584c0.443,7.95-3.634,15.691-12.119,23.011
			C50.195,88.104,49.847,88.23,49.492,88.23z M49.563,47.357c-0.524,2.7-1.901,7.017-5.511,11.739
			c-4.658,6.094-6.31,11.521-4.908,16.135c1.757,5.782,7.861,8.841,10.046,9.77c7.282-6.494,10.783-13.213,10.405-19.977
			C59.13,56.684,52.877,50.219,49.563,47.357z"/>
	</g>
</g>
<g display="none">
	<path display="inline" fill="#231F20" d="M92.934,58.999L77.33,35.924c-0.593-1.212-5.426-10.468-14.451-9.578
		c-9.429,0.925-11.231,7.337-11.304,7.609c-0.089,0.336-0.051,0.673,0.076,0.97c-0.651,0.478-1.203,1-1.651,1.561
		c-0.449-0.561-1-1.083-1.652-1.561c0.127-0.297,0.166-0.634,0.077-0.971c-0.072-0.272-1.875-6.685-11.304-7.609
		c-9.032-0.887-13.859,8.366-14.451,9.577L7.065,58.999c-0.464,0.686-0.284,1.618,0.402,2.082c0.258,0.175,0.55,0.258,0.839,0.258
		c0.481,0,0.954-0.231,1.244-0.66l15.667-23.166c0.043-0.064,0.083-0.135,0.116-0.205c0.041-0.087,4.18-8.684,11.495-7.977
		c4.428,0.435,6.663,2.273,7.75,3.686c-1.346-0.463-2.83-0.812-4.426-1.001c-7.856-0.934-12.596,6.721-12.794,7.047
		c-0.429,0.709-0.201,1.631,0.508,2.06c0.709,0.428,1.631,0.201,2.06-0.508c0.039-0.063,3.908-6.324,9.872-5.62
		c4.482,0.534,7.094,2.197,8.045,3.575c0.331,0.479,0.369,0.803,0.344,0.906c-0.105,0.42-0.421,0.763-0.889,0.966
		c-0.837,0.365-1.966,0.213-3.094-0.414c-1.471-0.817-3.327-0.854-5.368-0.102c-2.671,0.982-5.166,3.178-5.932,5.22
		c-1.203,3.208-0.67,10.837,4.64,13.983c1.254,0.744,2.563,1.413,3.828,2.062c2.854,1.461,5.805,2.972,6.139,4.474
		c0.184,0.826,0.013,1.538-0.481,2.003c-0.636,0.599-1.748,0.749-2.976,0.396c-4.068-1.162-13.923-3.422-17.54,0.7
		c-2.97,3.385-14.844,17.164-14.963,17.303c-0.541,0.628-0.471,1.575,0.157,2.116c0.283,0.244,0.631,0.363,0.979,0.363
		c0.421,0,0.84-0.177,1.137-0.521c0.12-0.139,11.984-13.908,14.946-17.283c1.893-2.156,8.822-1.405,14.46,0.206
		c2.288,0.654,4.423,0.255,5.857-1.098c0.377-0.355,0.676-0.764,0.914-1.205c0.237,0.441,0.536,0.85,0.913,1.205
		c1.435,1.351,3.569,1.753,5.857,1.098c5.638-1.611,12.568-2.363,14.46-0.206c2.962,3.375,15.494,17.919,15.62,18.065
		c0.297,0.344,0.716,0.521,1.138,0.521c0.347,0,0.695-0.119,0.979-0.363c0.627-0.541,0.697-1.488,0.157-2.116
		c-0.127-0.146-12.668-14.7-15.638-18.085c-3.618-4.122-13.471-1.862-17.54-0.7c-1.227,0.353-2.34,0.203-2.976-0.396
		c-0.494-0.465-0.665-1.177-0.481-2.003c0.334-1.502,3.285-3.013,6.14-4.474c1.265-0.648,2.573-1.318,3.827-2.062
		c5.31-3.146,5.843-10.775,4.64-13.983c-0.766-2.042-3.26-4.237-5.932-5.22c-2.041-0.751-3.896-0.716-5.367,0.102
		c-1.129,0.627-2.256,0.778-3.094,0.414c-0.468-0.203-0.783-0.546-0.889-0.967c-0.025-0.104,0.013-0.426,0.344-0.905
		c0.95-1.378,3.563-3.041,8.045-3.575c5.937-0.698,9.835,5.56,9.873,5.623c0.43,0.708,1.35,0.932,2.059,0.505
		c0.709-0.429,0.936-1.351,0.507-2.06c-0.196-0.326-4.918-7.989-12.794-7.047c-1.597,0.19-3.082,0.539-4.428,1.002
		c1.085-1.412,3.317-3.251,7.752-3.687c7.305-0.715,11.453,7.89,11.493,7.974c0.034,0.072,0.073,0.142,0.118,0.208l15.666,23.166
		c0.29,0.429,0.763,0.66,1.243,0.66c0.289,0,0.582-0.083,0.839-0.258C93.218,60.617,93.398,59.685,92.934,58.999z M57.254,42.649
		c0.674-0.373,1.695-0.343,2.875,0.092c2.05,0.754,3.755,2.382,4.158,3.458c0.744,1.984,0.488,8.068-3.36,10.35
		c-1.175,0.695-2.44,1.344-3.665,1.971c-3.116,1.596-6.078,3.117-7.262,5.336c-1.184-2.219-4.146-3.74-7.262-5.336
		c-1.225-0.627-2.491-1.275-3.666-1.971c-3.849-2.281-4.104-8.365-3.36-10.35c0.403-1.076,2.108-2.703,4.159-3.458
		c1.179-0.433,2.2-0.466,2.875-0.092c1.952,1.085,4.045,1.282,5.745,0.544c0.585-0.253,1.091-0.613,1.509-1.043
		c0.417,0.431,0.924,0.79,1.509,1.043C53.207,43.931,55.303,43.734,57.254,42.649z"/>
	<path display="inline" fill="#231F20" d="M24.003,27.578c0.276,0.487,0.784,0.761,1.307,0.761c0.25,0,0.504-0.063,0.738-0.195
		c0.721-0.408,0.974-1.324,0.565-2.045l-2.833-5c-0.408-0.72-1.323-0.974-2.045-0.565c-0.721,0.409-0.974,1.324-0.565,2.045
		L24.003,27.578z"/>
	<path display="inline" fill="#231F20" d="M35.742,22.377c0.229,0.597,0.797,0.962,1.4,0.962c0.179,0,0.361-0.032,0.538-0.101
		c0.773-0.297,1.159-1.165,0.861-1.938l-2.5-6.5c-0.297-0.772-1.164-1.161-1.938-0.861c-0.773,0.298-1.159,1.165-0.861,1.938
		L35.742,22.377z"/>
	<path display="inline" fill="#231F20" d="M49.641,21.839c0.829,0,1.5-0.672,1.5-1.5v-8.167c0-0.828-0.671-1.5-1.5-1.5
		s-1.5,0.672-1.5,1.5v8.167C48.141,21.167,48.813,21.839,49.641,21.839z"/>
	<path display="inline" fill="#231F20" d="M59.643,23.087c0.256,0.17,0.545,0.252,0.831,0.252c0.484,0,0.96-0.234,1.249-0.668
		l4.334-6.5c0.46-0.689,0.273-1.621-0.416-2.08c-0.688-0.46-1.62-0.274-2.08,0.416l-4.334,6.5
		C58.767,21.695,58.953,22.627,59.643,23.087z"/>
	<path display="inline" fill="#231F20" d="M73.474,28.339c0.421,0,0.84-0.177,1.136-0.52l3.167-3.667
		c0.542-0.627,0.473-1.574-0.154-2.115c-0.626-0.541-1.575-0.471-2.115,0.154l-3.167,3.667c-0.542,0.627-0.473,1.574,0.154,2.115
		C72.777,28.219,73.127,28.339,73.474,28.339z"/>
</g>
<g>
	<path fill="#231F20" d="M50.475,25.88c-0.02,0-0.039,0.005-0.059,0.006c-0.02-0.001-0.038-0.006-0.058-0.006
		c-6.232,0-12.092,2.427-16.499,6.834s-6.834,10.267-6.834,16.499c0,5.966,2.022,14.185,11.577,19.693l1.371,2.855l-1.665,1.924
		c-0.432,0.498-0.487,1.221-0.135,1.779l1.836,2.918l-1.878,3.391c-0.265,0.479-0.249,1.063,0.042,1.525l2.308,3.666
		c0.275,0.438,0.754,0.701,1.27,0.701h7.167h3h7.166c0.516,0,0.995-0.264,1.27-0.701l2.309-3.666
		c0.291-0.461,0.308-1.047,0.043-1.525l-1.879-3.391l1.836-2.918c0.352-0.559,0.297-1.281-0.136-1.779l-1.664-1.924l1.37-2.855
		c9.555-5.51,11.577-13.727,11.577-19.693c0-6.232-2.428-12.092-6.835-16.499S56.706,25.88,50.475,25.88z M60.354,66.521
		c-0.271,0.152-0.489,0.383-0.624,0.662l-2,4.168c-0.258,0.539-0.173,1.18,0.219,1.631l1.581,1.826l-1.717,2.727
		c-0.291,0.463-0.308,1.047-0.043,1.525l1.879,3.391l-1.395,2.215h-6.338h-3h-6.338l-1.395-2.215l1.878-3.391
		c0.265-0.479,0.249-1.063-0.042-1.525l-1.716-2.727l1.581-1.826c0.391-0.451,0.477-1.092,0.218-1.631l-2-4.168
		c-0.135-0.279-0.353-0.51-0.624-0.662c-8.64-4.799-10.454-12.061-10.454-17.308c0-5.431,2.115-10.537,5.956-14.378
		c3.841-3.84,8.947-5.956,14.378-5.956c0.02,0,0.039-0.005,0.058-0.006c0.02,0.001,0.039,0.006,0.059,0.006
		c5.431,0,10.536,2.115,14.377,5.956c3.841,3.841,5.956,8.947,5.956,14.378C70.808,54.46,68.994,61.723,60.354,66.521z"/>
	<path fill="#231F20" d="M57.863,46.693c-0.551-0.105-1.081,0.109-1.419,0.506c-0.112,0.097-0.217,0.206-0.3,0.338l-1.231,1.968
		l-1.232-1.968c-0.274-0.438-0.755-0.704-1.271-0.704c0,0,0,0-0.001,0c-0.517,0-0.997,0.267-1.271,0.705l-1.227,1.964l-1.228-1.964
		c-0.274-0.438-0.755-0.705-1.272-0.705c-0.518,0-0.998,0.267-1.272,0.706l-1.226,1.962l-1.037-1.662
		c-0.176-0.786-0.942-1.298-1.739-1.146c-0.741,0.141-1.245,0.806-1.213,1.538c-0.015,0.221,0.018,0.445,0.103,0.659l3.083,16.224
		c0.137,0.719,0.766,1.221,1.472,1.221c0.093,0,0.187-0.01,0.281-0.027c0.814-0.154,1.349-0.939,1.194-1.754l-2.04-10.732
		c0.476-0.035,0.912-0.284,1.167-0.692l1.227-1.964l1.227,1.965c0.274,0.438,0.754,0.705,1.272,0.705
		c0.517,0,0.998-0.268,1.271-0.705l1.229-1.967l1.231,1.967c0.274,0.438,0.755,0.705,1.271,0.705c0.023,0,0.045-0.008,0.068-0.01
		l-2.039,10.729c-0.154,0.814,0.38,1.6,1.193,1.754c0.095,0.018,0.189,0.027,0.282,0.027c0.706,0,1.335-0.502,1.472-1.221
		l3.167-16.667C59.211,47.633,58.677,46.848,57.863,46.693z"/>
	<path fill="#231F20" d="M27.293,32.589l-6.5-6.287c-0.595-0.576-1.545-0.56-2.121,0.035c-0.576,0.596-0.56,1.545,0.035,2.121
		l6.5,6.287c0.292,0.282,0.667,0.422,1.043,0.422c0.392,0,0.784-0.153,1.078-0.457C27.904,34.114,27.888,33.165,27.293,32.589z"/>
	<path fill="#231F20" d="M81.328,26.337c-0.576-0.596-1.526-0.612-2.121-0.035l-6.5,6.287c-0.596,0.576-0.611,1.525-0.035,2.121
		c0.294,0.304,0.686,0.457,1.078,0.457c0.376,0,0.752-0.14,1.043-0.422l6.5-6.287C81.889,27.882,81.904,26.933,81.328,26.337z"/>
	<path fill="#231F20" d="M49.691,23c0.829,0,1.5-0.671,1.5-1.5v-7.667c0-0.829-0.671-1.5-1.5-1.5s-1.5,0.671-1.5,1.5V21.5
		C48.191,22.329,48.863,23,49.691,23z"/>
</g>
</svg>
