<svg width="168" height="24" viewBox="0 0 168 24" fill="none" xmlns="http://www.w3.org/2000/svg">
<path d="M19.95 23.06C19.35 23.3 18.76 23.34 18.18 23.18C17.6 23.02 17.21 22.68 17.01 22.16L15.33 17.69H6.42L4.74 22.16C4.54 22.68 4.16 23.02 3.6 23.18C3.06 23.36 2.46 23.33 1.8 23.09C1.16 22.87 0.75 22.51 0.57 22.01C0.39 21.49 0.42 20.97 0.66 20.45L8.22 1.88C8.42 1.42 8.73 1.05 9.15 0.769998C9.57 0.489998 10.14 0.349998 10.86 0.349998C11.58 0.349998 12.15 0.489998 12.57 0.769998C12.99 1.05 13.3 1.42 13.5 1.88L21.06 20.45C21.3 20.97 21.32 21.48 21.12 21.98C20.92 22.46 20.53 22.82 19.95 23.06ZM7.77 14.09H13.98L10.86 5.81L7.77 14.09ZM28.429 4.4V9.86H33.259C34.019 9.86 34.619 9.62 35.059 9.14C35.499 8.66 35.719 7.99 35.719 7.13C35.719 6.27 35.499 5.6 35.059 5.12C34.619 4.64 34.019 4.4 33.259 4.4H28.429ZM41.389 16.85C41.389 19.15 40.599 20.83 39.019 21.89C37.459 22.93 35.269 23.45 32.449 23.45C30.909 23.45 29.599 23.36 28.519 23.18C27.439 23.02 26.559 22.76 25.879 22.4C25.219 22.02 24.739 21.53 24.439 20.93C24.139 20.33 23.989 19.6 23.989 18.74V3.35C23.989 1.65 24.839 0.8 26.539 0.8H33.379C35.559 0.8 37.239 1.31 38.419 2.33C39.619 3.33 40.219 4.77 40.219 6.65C40.219 7.75 39.999 8.69 39.559 9.47C39.139 10.25 38.539 10.83 37.759 11.21C38.859 11.59 39.739 12.27 40.399 13.25C41.059 14.21 41.389 15.41 41.389 16.85ZM28.429 17.9C28.429 18.26 28.489 18.56 28.609 18.8C28.729 19.04 28.929 19.23 29.209 19.37C29.489 19.51 29.859 19.61 30.319 19.67C30.799 19.73 31.389 19.76 32.089 19.76C33.789 19.76 35.009 19.52 35.749 19.04C36.509 18.54 36.889 17.71 36.889 16.55C36.889 15.39 36.609 14.57 36.049 14.09C35.489 13.59 34.749 13.34 33.829 13.34H28.429V17.9ZM55.4189 23.45C53.6989 23.45 52.1089 23.18 50.6489 22.64C49.2089 22.1 47.9689 21.33 46.9289 20.33C45.8889 19.33 45.0789 18.12 44.4989 16.7C43.9189 15.28 43.6289 13.68 43.6289 11.9C43.6289 10.12 43.9189 8.52 44.4989 7.1C45.0789 5.68 45.8889 4.47 46.9289 3.47C47.9689 2.47 49.2089 1.7 50.6489 1.16C52.1089 0.619998 53.6989 0.349998 55.4189 0.349998C57.1389 0.349998 58.7189 0.619998 60.1589 1.16C61.6189 1.7 62.8689 2.47 63.9089 3.47C64.9489 4.47 65.7589 5.68 66.3389 7.1C66.9189 8.52 67.2089 10.12 67.2089 11.9C67.2089 13.68 66.9189 15.28 66.3389 16.7C65.7589 18.12 64.9489 19.33 63.9089 20.33C62.8689 21.33 61.6189 22.1 60.1589 22.64C58.7189 23.18 57.1389 23.45 55.4189 23.45ZM55.4189 19.79C56.4389 19.79 57.3889 19.61 58.2689 19.25C59.1689 18.87 59.9489 18.34 60.6089 17.66C61.2689 16.96 61.7789 16.13 62.1389 15.17C62.5189 14.19 62.7089 13.1 62.7089 11.9C62.7089 10.7 62.5189 9.62 62.1389 8.66C61.7789 7.68 61.2689 6.85 60.6089 6.17C59.9489 5.47 59.1689 4.94 58.2689 4.58C57.3889 4.2 56.4389 4.01 55.4189 4.01C54.3989 4.01 53.4389 4.2 52.5389 4.58C51.6589 4.94 50.8889 5.47 50.2289 6.17C49.5689 6.85 49.0489 7.68 48.6689 8.66C48.3089 9.62 48.1289 10.7 48.1289 11.9C48.1289 13.1 48.3089 14.19 48.6689 15.17C49.0489 16.13 49.5689 16.96 50.2289 17.66C50.8889 18.34 51.6589 18.87 52.5389 19.25C53.4389 19.61 54.3989 19.79 55.4189 19.79ZM88.9812 15.98C88.9812 17.06 88.8012 18.06 88.4412 18.98C88.0812 19.9 87.5312 20.69 86.7912 21.35C86.0512 22.01 85.1112 22.53 83.9712 22.91C82.8512 23.27 81.5112 23.45 79.9512 23.45C78.3912 23.45 77.0412 23.27 75.9012 22.91C74.7812 22.53 73.8512 22.01 73.1112 21.35C72.3912 20.69 71.8512 19.9 71.4912 18.98C71.1312 18.06 70.9512 17.05 70.9512 15.95V2.06C70.9512 1.56 71.1512 1.18 71.5512 0.919998C71.9712 0.639998 72.5212 0.499998 73.2012 0.499998C73.8812 0.499998 74.4212 0.639998 74.8212 0.919998C75.2412 1.18 75.4512 1.56 75.4512 2.06V15.83C75.4512 16.41 75.5312 16.95 75.6912 17.45C75.8712 17.93 76.1412 18.35 76.5012 18.71C76.8612 19.07 77.3212 19.35 77.8812 19.55C78.4612 19.75 79.1512 19.85 79.9512 19.85C80.7512 19.85 81.4312 19.75 81.9912 19.55C82.5712 19.35 83.0412 19.07 83.4012 18.71C83.7812 18.35 84.0512 17.93 84.2112 17.45C84.3912 16.95 84.4812 16.42 84.4812 15.86V2.06C84.4812 1.56 84.6812 1.18 85.0812 0.919998C85.5012 0.639998 86.0512 0.499998 86.7312 0.499998C87.4112 0.499998 87.9512 0.639998 88.3512 0.919998C88.7712 1.18 88.9812 1.56 88.9812 2.06V15.98ZM103.62 4.4V21.41C103.62 22.01 103.43 22.48 103.05 22.82C102.67 23.14 102.11 23.3 101.37 23.3C100.63 23.3 100.07 23.14 99.6905 22.82C99.3105 22.48 99.1205 22.01 99.1205 21.41V4.4H93.6905C93.1705 4.4 92.7505 4.24 92.4305 3.92C92.1305 3.6 91.9805 3.16 91.9805 2.6C91.9805 2.06 92.1305 1.63 92.4305 1.31C92.7505 0.969999 93.1705 0.8 93.6905 0.8H109.11C109.63 0.8 110.04 0.969999 110.34 1.31C110.66 1.63 110.82 2.06 110.82 2.6C110.82 3.16 110.66 3.6 110.34 3.92C110.04 4.24 109.63 4.4 109.11 4.4H103.62ZM138.122 21.17C137.922 21.83 137.572 22.33 137.072 22.67C136.592 22.99 136.012 23.15 135.332 23.15C134.652 23.15 134.062 22.99 133.562 22.67C133.082 22.33 132.742 21.83 132.542 21.17L127.832 6.62L126.512 21.77C126.492 22.35 126.262 22.78 125.822 23.06C125.382 23.36 124.842 23.49 124.202 23.45C123.562 23.41 123.072 23.22 122.732 22.88C122.392 22.54 122.252 22.07 122.312 21.47L124.232 2.78C124.312 2.08 124.602 1.5 125.102 1.04C125.602 0.579998 126.332 0.349998 127.292 0.349998C128.252 0.349998 128.972 0.559999 129.452 0.979999C129.932 1.38 130.282 1.93 130.502 2.63L135.332 17.36L140.162 2.63C140.382 1.93 140.732 1.38 141.212 0.979999C141.692 0.559999 142.412 0.349998 143.372 0.349998C144.332 0.349998 145.062 0.579998 145.562 1.04C146.062 1.5 146.352 2.08 146.432 2.78L148.352 21.53C148.412 22.11 148.262 22.56 147.902 22.88C147.562 23.2 147.072 23.39 146.432 23.45C145.752 23.51 145.202 23.39 144.782 23.09C144.382 22.81 144.172 22.37 144.152 21.77L142.832 6.65L138.122 21.17ZM156.282 17.84C156.282 18.2 156.342 18.5 156.462 18.74C156.582 18.98 156.782 19.17 157.062 19.31C157.342 19.45 157.712 19.55 158.172 19.61C158.652 19.67 159.242 19.7 159.942 19.7C160.842 19.7 161.712 19.64 162.552 19.52C163.412 19.4 164.152 19.26 164.772 19.1C165.352 18.94 165.822 18.98 166.182 19.22C166.562 19.46 166.822 19.83 166.962 20.33C167.102 20.85 167.082 21.32 166.902 21.74C166.742 22.16 166.412 22.45 165.912 22.61C165.152 22.87 164.252 23.07 163.212 23.21C162.172 23.37 161.082 23.45 159.942 23.45C158.462 23.45 157.202 23.36 156.162 23.18C155.142 23.02 154.302 22.76 153.642 22.4C153.002 22.02 152.532 21.53 152.232 20.93C151.932 20.33 151.782 19.6 151.782 18.74V3.35C151.782 1.65 152.632 0.8 154.332 0.8H164.592C165.112 0.8 165.522 0.959999 165.822 1.28C166.142 1.6 166.302 2.04 166.302 2.6C166.302 3.14 166.142 3.58 165.822 3.92C165.522 4.24 165.112 4.4 164.592 4.4H156.282V9.83H163.752C164.272 9.83 164.682 9.99 164.982 10.31C165.302 10.63 165.462 11.07 165.462 11.63C165.462 12.17 165.302 12.61 164.982 12.95C164.682 13.27 164.272 13.43 163.752 13.43H156.282V17.84Z" fill="#826BAF" fill-opacity="0.3"/>
</svg>
