<svg width="113" height="16" viewBox="0 0 113 16" fill="none" xmlns="http://www.w3.org/2000/svg">
<path d="M13.9667 15.54C13.5667 15.7 13.1734 15.7267 12.7867 15.62C12.4001 15.5133 12.1401 15.2867 12.0067 14.94L10.8867 11.96H4.94675L3.82675 14.94C3.69341 15.2867 3.44008 15.5133 3.06675 15.62C2.70675 15.74 2.30675 15.72 1.86675 15.56C1.44008 15.4133 1.16675 15.1733 1.04675 14.84C0.926748 14.4933 0.946748 14.1467 1.10675 13.8L6.14675 1.42C6.28008 1.11333 6.48675 0.866666 6.76675 0.679999C7.04675 0.493332 7.42675 0.399999 7.90675 0.399999C8.38675 0.399999 8.76675 0.493332 9.04675 0.679999C9.32675 0.866666 9.53342 1.11333 9.66675 1.42L14.7067 13.8C14.8667 14.1467 14.8801 14.4867 14.7467 14.82C14.6134 15.14 14.3534 15.38 13.9667 15.54ZM5.84675 9.56H9.98675L7.90675 4.04L5.84675 9.56ZM19.6194 3.1V6.74H22.8394C23.3461 6.74 23.7461 6.58 24.0394 6.26C24.3327 5.94 24.4794 5.49333 24.4794 4.92C24.4794 4.34667 24.3327 3.9 24.0394 3.58C23.7461 3.26 23.3461 3.1 22.8394 3.1H19.6194ZM28.2594 11.4C28.2594 12.9333 27.7327 14.0533 26.6794 14.76C25.6394 15.4533 24.1794 15.8 22.2994 15.8C21.2727 15.8 20.3994 15.74 19.6794 15.62C18.9594 15.5133 18.3727 15.34 17.9194 15.1C17.4794 14.8467 17.1594 14.52 16.9594 14.12C16.7594 13.72 16.6594 13.2333 16.6594 12.66V2.4C16.6594 1.26667 17.2261 0.7 18.3594 0.7H22.9194C24.3727 0.7 25.4927 1.04 26.2794 1.72C27.0794 2.38667 27.4794 3.34667 27.4794 4.6C27.4794 5.33333 27.3327 5.96 27.0394 6.48C26.7594 7 26.3594 7.38667 25.8394 7.64C26.5727 7.89333 27.1594 8.34667 27.5994 9C28.0394 9.64 28.2594 10.44 28.2594 11.4ZM19.6194 12.1C19.6194 12.34 19.6594 12.54 19.7394 12.7C19.8194 12.86 19.9527 12.9867 20.1394 13.08C20.3261 13.1733 20.5727 13.24 20.8794 13.28C21.1994 13.32 21.5927 13.34 22.0594 13.34C23.1927 13.34 24.0061 13.18 24.4994 12.86C25.0061 12.5267 25.2594 11.9733 25.2594 11.2C25.2594 10.4267 25.0727 9.88 24.6994 9.56C24.3261 9.22667 23.8327 9.06 23.2194 9.06H19.6194V12.1ZM37.6127 15.8C36.466 15.8 35.406 15.62 34.4327 15.26C33.4727 14.9 32.646 14.3867 31.9527 13.72C31.2594 13.0533 30.7194 12.2467 30.3327 11.3C29.946 10.3533 29.7527 9.28667 29.7527 8.1C29.7527 6.91333 29.946 5.84667 30.3327 4.9C30.7194 3.95333 31.2594 3.14667 31.9527 2.48C32.646 1.81333 33.4727 1.3 34.4327 0.939999C35.406 0.579999 36.466 0.399999 37.6127 0.399999C38.7594 0.399999 39.8127 0.579999 40.7727 0.939999C41.746 1.3 42.5794 1.81333 43.2727 2.48C43.966 3.14667 44.506 3.95333 44.8927 4.9C45.2794 5.84667 45.4727 6.91333 45.4727 8.1C45.4727 9.28667 45.2794 10.3533 44.8927 11.3C44.506 12.2467 43.966 13.0533 43.2727 13.72C42.5794 14.3867 41.746 14.9 40.7727 15.26C39.8127 15.62 38.7594 15.8 37.6127 15.8ZM37.6127 13.36C38.2927 13.36 38.926 13.24 39.5127 13C40.1127 12.7467 40.6327 12.3933 41.0727 11.94C41.5127 11.4733 41.8527 10.92 42.0927 10.28C42.346 9.62667 42.4727 8.9 42.4727 8.1C42.4727 7.3 42.346 6.58 42.0927 5.94C41.8527 5.28667 41.5127 4.73333 41.0727 4.28C40.6327 3.81333 40.1127 3.46 39.5127 3.22C38.926 2.96667 38.2927 2.84 37.6127 2.84C36.9327 2.84 36.2927 2.96667 35.6927 3.22C35.106 3.46 34.5927 3.81333 34.1527 4.28C33.7127 4.73333 33.366 5.28667 33.1127 5.94C32.8727 6.58 32.7527 7.3 32.7527 8.1C32.7527 8.9 32.8727 9.62667 33.1127 10.28C33.366 10.92 33.7127 11.4733 34.1527 11.94C34.5927 12.3933 35.106 12.7467 35.6927 13C36.2927 13.24 36.9327 13.36 37.6127 13.36ZM59.9875 10.82C59.9875 11.54 59.8675 12.2067 59.6275 12.82C59.3875 13.4333 59.0209 13.96 58.5275 14.4C58.0342 14.84 57.4075 15.1867 56.6475 15.44C55.9009 15.68 55.0075 15.8 53.9675 15.8C52.9275 15.8 52.0275 15.68 51.2675 15.44C50.5209 15.1867 49.9009 14.84 49.4075 14.4C48.9275 13.96 48.5675 13.4333 48.3275 12.82C48.0875 12.2067 47.9675 11.5333 47.9675 10.8V1.54C47.9675 1.20667 48.1009 0.953332 48.3675 0.779999C48.6475 0.593332 49.0142 0.499999 49.4675 0.499999C49.9209 0.499999 50.2809 0.593332 50.5475 0.779999C50.8275 0.953332 50.9675 1.20667 50.9675 1.54V10.72C50.9675 11.1067 51.0209 11.4667 51.1275 11.8C51.2475 12.12 51.4275 12.4 51.6675 12.64C51.9075 12.88 52.2142 13.0667 52.5875 13.2C52.9742 13.3333 53.4342 13.4 53.9675 13.4C54.5009 13.4 54.9542 13.3333 55.3275 13.2C55.7142 13.0667 56.0275 12.88 56.2675 12.64C56.5209 12.4 56.7009 12.12 56.8075 11.8C56.9275 11.4667 56.9875 11.1133 56.9875 10.74V1.54C56.9875 1.20667 57.1209 0.953332 57.3875 0.779999C57.6675 0.593332 58.0342 0.499999 58.4875 0.499999C58.9409 0.499999 59.3009 0.593332 59.5675 0.779999C59.8475 0.953332 59.9875 1.20667 59.9875 1.54V10.82ZM69.7471 3.1V14.44C69.7471 14.84 69.6204 15.1533 69.3671 15.38C69.1137 15.5933 68.7404 15.7 68.2471 15.7C67.7537 15.7 67.3804 15.5933 67.1271 15.38C66.8737 15.1533 66.7471 14.84 66.7471 14.44V3.1H63.1271C62.7804 3.1 62.5004 2.99333 62.2871 2.78C62.0871 2.56667 61.9871 2.27333 61.9871 1.9C61.9871 1.54 62.0871 1.25333 62.2871 1.04C62.5004 0.813333 62.7804 0.7 63.1271 0.7H73.4071C73.7537 0.7 74.0271 0.813333 74.2271 1.04C74.4404 1.25333 74.5471 1.54 74.5471 1.9C74.5471 2.27333 74.4404 2.56667 74.2271 2.78C74.0271 2.99333 73.7537 3.1 73.4071 3.1H69.7471ZM92.748 14.28C92.6147 14.72 92.3813 15.0533 92.048 15.28C91.728 15.4933 91.3413 15.6 90.888 15.6C90.4347 15.6 90.0413 15.4933 89.708 15.28C89.388 15.0533 89.1613 14.72 89.028 14.28L85.888 4.58L85.008 14.68C84.9947 15.0667 84.8413 15.3533 84.548 15.54C84.2547 15.74 83.8947 15.8267 83.468 15.8C83.0413 15.7733 82.7147 15.6467 82.488 15.42C82.2613 15.1933 82.168 14.88 82.208 14.48L83.488 2.02C83.5413 1.55333 83.7347 1.16667 84.068 0.859999C84.4013 0.553332 84.888 0.399999 85.528 0.399999C86.168 0.399999 86.648 0.539999 86.968 0.819999C87.288 1.08667 87.5213 1.45333 87.668 1.92L90.888 11.74L94.108 1.92C94.2547 1.45333 94.488 1.08667 94.808 0.819999C95.128 0.539999 95.608 0.399999 96.248 0.399999C96.888 0.399999 97.3747 0.553332 97.708 0.859999C98.0413 1.16667 98.2347 1.55333 98.288 2.02L99.568 14.52C99.608 14.9067 99.508 15.2067 99.268 15.42C99.0413 15.6333 98.7147 15.76 98.288 15.8C97.8347 15.84 97.468 15.76 97.188 15.56C96.9213 15.3733 96.7813 15.08 96.768 14.68L95.888 4.6L92.748 14.28ZM104.855 12.06C104.855 12.3 104.895 12.5 104.975 12.66C105.055 12.82 105.188 12.9467 105.375 13.04C105.561 13.1333 105.808 13.2 106.115 13.24C106.435 13.28 106.828 13.3 107.295 13.3C107.895 13.3 108.475 13.26 109.035 13.18C109.608 13.1 110.101 13.0067 110.515 12.9C110.901 12.7933 111.215 12.82 111.455 12.98C111.708 13.14 111.881 13.3867 111.975 13.72C112.068 14.0667 112.055 14.38 111.935 14.66C111.828 14.94 111.608 15.1333 111.275 15.24C110.768 15.4133 110.168 15.5467 109.475 15.64C108.781 15.7467 108.055 15.8 107.295 15.8C106.308 15.8 105.468 15.74 104.775 15.62C104.095 15.5133 103.535 15.34 103.095 15.1C102.668 14.8467 102.355 14.52 102.155 14.12C101.955 13.72 101.855 13.2333 101.855 12.66V2.4C101.855 1.26667 102.421 0.7 103.555 0.7H110.395C110.741 0.7 111.015 0.806666 111.215 1.02C111.428 1.23333 111.535 1.52667 111.535 1.9C111.535 2.26 111.428 2.55333 111.215 2.78C111.015 2.99333 110.741 3.1 110.395 3.1H104.855V6.72H109.835C110.181 6.72 110.455 6.82667 110.655 7.04C110.868 7.25333 110.975 7.54667 110.975 7.92C110.975 8.28 110.868 8.57333 110.655 8.8C110.455 9.01333 110.181 9.12 109.835 9.12H104.855V12.06Z" fill="#FFDC70"/>
</svg>
