<svg width="152" height="24" viewBox="0 0 152 24" fill="none" xmlns="http://www.w3.org/2000/svg">
<path d="M12.38 19.79C13.52 19.79 14.58 19.67 15.56 19.43C16.54 19.19 17.41 18.87 18.17 18.47C18.69 18.19 19.17 18.14 19.61 18.32C20.07 18.48 20.41 18.8 20.63 19.28C20.87 19.8 20.92 20.29 20.78 20.75C20.66 21.21 20.33 21.58 19.79 21.86C18.81 22.38 17.66 22.77 16.34 23.03C15.04 23.31 13.67 23.45 12.23 23.45C10.49 23.45 8.9 23.18 7.46 22.64C6.04 22.1 4.81 21.33 3.77 20.33C2.73 19.33 1.92 18.12 1.34 16.7C0.78 15.28 0.5 13.68 0.5 11.9C0.5 10.12 0.78 8.52 1.34 7.1C1.92 5.68 2.73 4.47 3.77 3.47C4.81 2.47 6.04 1.7 7.46 1.16C8.9 0.619998 10.49 0.349998 12.23 0.349998C13.57 0.349998 14.81 0.489998 15.95 0.769998C17.11 1.03 18.18 1.42 19.16 1.94C19.76 2.26 20.11 2.66 20.21 3.14C20.31 3.62 20.24 4.11 20 4.61C19.78 5.05 19.44 5.36 18.98 5.54C18.54 5.7 18.08 5.64 17.6 5.36C16.88 4.96 16.08 4.64 15.2 4.4C14.32 4.14 13.38 4.01 12.38 4.01C11.32 4.01 10.34 4.2 9.44 4.58C8.54 4.94 7.76 5.47 7.1 6.17C6.44 6.85 5.92 7.68 5.54 8.66C5.18 9.62 5 10.7 5 11.9C5 13.1 5.18 14.19 5.54 15.17C5.92 16.13 6.44 16.96 7.1 17.66C7.76 18.34 8.54 18.87 9.44 19.25C10.34 19.61 11.32 19.79 12.38 19.79ZM34.8486 23.45C33.1286 23.45 31.5386 23.18 30.0786 22.64C28.6386 22.1 27.3986 21.33 26.3586 20.33C25.3186 19.33 24.5086 18.12 23.9286 16.7C23.3486 15.28 23.0586 13.68 23.0586 11.9C23.0586 10.12 23.3486 8.52 23.9286 7.1C24.5086 5.68 25.3186 4.47 26.3586 3.47C27.3986 2.47 28.6386 1.7 30.0786 1.16C31.5386 0.619998 33.1286 0.349998 34.8486 0.349998C36.5686 0.349998 38.1486 0.619998 39.5886 1.16C41.0486 1.7 42.2986 2.47 43.3386 3.47C44.3786 4.47 45.1886 5.68 45.7686 7.1C46.3486 8.52 46.6386 10.12 46.6386 11.9C46.6386 13.68 46.3486 15.28 45.7686 16.7C45.1886 18.12 44.3786 19.33 43.3386 20.33C42.2986 21.33 41.0486 22.1 39.5886 22.64C38.1486 23.18 36.5686 23.45 34.8486 23.45ZM34.8486 19.79C35.8686 19.79 36.8186 19.61 37.6986 19.25C38.5986 18.87 39.3786 18.34 40.0386 17.66C40.6986 16.96 41.2086 16.13 41.5686 15.17C41.9486 14.19 42.1386 13.1 42.1386 11.9C42.1386 10.7 41.9486 9.62 41.5686 8.66C41.2086 7.68 40.6986 6.85 40.0386 6.17C39.3786 5.47 38.5986 4.94 37.6986 4.58C36.8186 4.2 35.8686 4.01 34.8486 4.01C33.8286 4.01 32.8686 4.2 31.9686 4.58C31.0886 4.94 30.3186 5.47 29.6586 6.17C28.9986 6.85 28.4786 7.68 28.0986 8.66C27.7386 9.62 27.5586 10.7 27.5586 11.9C27.5586 13.1 27.7386 14.19 28.0986 15.17C28.4786 16.13 28.9986 16.96 29.6586 17.66C30.3186 18.34 31.0886 18.87 31.9686 19.25C32.8686 19.61 33.8286 19.79 34.8486 19.79ZM53.0209 0.499998C53.8209 0.499998 54.4709 0.679998 54.9709 1.04C55.4709 1.38 55.9009 1.87 56.2609 2.51L64.0309 16.25V2.06C64.0309 1.56 64.2209 1.18 64.6009 0.919998C64.9809 0.639998 65.5109 0.499998 66.1909 0.499998C66.8709 0.499998 67.4009 0.639998 67.7809 0.919998C68.1609 1.2 68.3509 1.6 68.3509 2.12V20.93C68.3509 21.69 68.1209 22.28 67.6609 22.7C67.2209 23.1 66.5709 23.3 65.7109 23.3C64.9109 23.3 64.2609 23.13 63.7609 22.79C63.2609 22.43 62.8309 21.93 62.4709 21.29L54.7009 7.55V21.74C54.7009 22.24 54.5109 22.63 54.1309 22.91C53.7509 23.17 53.2209 23.3 52.5409 23.3C51.8609 23.3 51.3309 23.16 50.9509 22.88C50.5709 22.6 50.3809 22.2 50.3809 21.68V2.87C50.3809 2.11 50.6009 1.53 51.0409 1.13C51.5009 0.709998 52.1609 0.499998 53.0209 0.499998ZM82.9916 4.4V21.41C82.9916 22.01 82.8016 22.48 82.4216 22.82C82.0416 23.14 81.4816 23.3 80.7416 23.3C80.0016 23.3 79.4416 23.14 79.0616 22.82C78.6816 22.48 78.4916 22.01 78.4916 21.41V4.4H73.0616C72.5416 4.4 72.1216 4.24 71.8016 3.92C71.5016 3.6 71.3516 3.16 71.3516 2.6C71.3516 2.06 71.5016 1.63 71.8016 1.31C72.1216 0.969999 72.5416 0.8 73.0616 0.8H88.4816C89.0016 0.8 89.4116 0.969999 89.7116 1.31C90.0316 1.63 90.1916 2.06 90.1916 2.6C90.1916 3.16 90.0316 3.6 89.7116 3.92C89.4116 4.24 89.0016 4.4 88.4816 4.4H82.9916ZM108.481 23.06C107.881 23.3 107.291 23.34 106.711 23.18C106.131 23.02 105.741 22.68 105.541 22.16L103.861 17.69H94.9513L93.2713 22.16C93.0713 22.68 92.6913 23.02 92.1313 23.18C91.5913 23.36 90.9913 23.33 90.3313 23.09C89.6913 22.87 89.2813 22.51 89.1013 22.01C88.9213 21.49 88.9513 20.97 89.1913 20.45L96.7513 1.88C96.9513 1.42 97.2613 1.05 97.6813 0.769998C98.1013 0.489998 98.6713 0.349998 99.3913 0.349998C100.111 0.349998 100.681 0.489998 101.101 0.769998C101.521 1.05 101.831 1.42 102.031 1.88L109.591 20.45C109.831 20.97 109.851 21.48 109.651 21.98C109.451 22.46 109.061 22.82 108.481 23.06ZM96.3013 14.09H102.511L99.3913 5.81L96.3013 14.09ZM122.419 19.79C123.559 19.79 124.619 19.67 125.599 19.43C126.579 19.19 127.449 18.87 128.209 18.47C128.729 18.19 129.209 18.14 129.649 18.32C130.109 18.48 130.449 18.8 130.669 19.28C130.909 19.8 130.959 20.29 130.819 20.75C130.699 21.21 130.369 21.58 129.829 21.86C128.849 22.38 127.699 22.77 126.379 23.03C125.079 23.31 123.709 23.45 122.269 23.45C120.529 23.45 118.939 23.18 117.499 22.64C116.079 22.1 114.849 21.33 113.809 20.33C112.769 19.33 111.959 18.12 111.379 16.7C110.819 15.28 110.539 13.68 110.539 11.9C110.539 10.12 110.819 8.52 111.379 7.1C111.959 5.68 112.769 4.47 113.809 3.47C114.849 2.47 116.079 1.7 117.499 1.16C118.939 0.619998 120.529 0.349998 122.269 0.349998C123.609 0.349998 124.849 0.489998 125.989 0.769998C127.149 1.03 128.219 1.42 129.199 1.94C129.799 2.26 130.149 2.66 130.249 3.14C130.349 3.62 130.279 4.11 130.039 4.61C129.819 5.05 129.479 5.36 129.019 5.54C128.579 5.7 128.119 5.64 127.639 5.36C126.919 4.96 126.119 4.64 125.239 4.4C124.359 4.14 123.419 4.01 122.419 4.01C121.359 4.01 120.379 4.2 119.479 4.58C118.579 4.94 117.799 5.47 117.139 6.17C116.479 6.85 115.959 7.68 115.579 8.66C115.219 9.62 115.039 10.7 115.039 11.9C115.039 13.1 115.219 14.19 115.579 15.17C115.959 16.13 116.479 16.96 117.139 17.66C117.799 18.34 118.579 18.87 119.479 19.25C120.379 19.61 121.359 19.79 122.419 19.79ZM143.988 4.4V21.41C143.988 22.01 143.798 22.48 143.418 22.82C143.038 23.14 142.478 23.3 141.738 23.3C140.998 23.3 140.438 23.14 140.058 22.82C139.678 22.48 139.488 22.01 139.488 21.41V4.4H134.058C133.538 4.4 133.118 4.24 132.798 3.92C132.498 3.6 132.348 3.16 132.348 2.6C132.348 2.06 132.498 1.63 132.798 1.31C133.118 0.969999 133.538 0.8 134.058 0.8H149.478C149.998 0.8 150.408 0.969999 150.708 1.31C151.028 1.63 151.188 2.06 151.188 2.6C151.188 3.16 151.028 3.6 150.708 3.92C150.408 4.24 149.998 4.4 149.478 4.4H143.988Z" fill="#826BAF" fill-opacity="0.3"/>
</svg>
