<svg width="63" height="16" viewBox="0 0 63 16" fill="none" xmlns="http://www.w3.org/2000/svg">
<path d="M2 15.7C1.54667 15.7 1.18 15.6067 0.9 15.42C0.633333 15.2333 0.5 14.9667 0.5 14.62V1.58C0.5 1.23333 0.633333 0.966665 0.9 0.779999C1.18 0.593332 1.54667 0.499999 2 0.499999C2.45333 0.499999 2.81333 0.593332 3.08 0.779999C3.36 0.953332 3.5 1.20667 3.5 1.54V6.62H9.3V1.58C9.3 1.23333 9.43333 0.966665 9.7 0.779999C9.98 0.593332 10.3467 0.499999 10.8 0.499999C11.2533 0.499999 11.6133 0.593332 11.88 0.779999C12.16 0.953332 12.3 1.20667 12.3 1.54V14.66C12.3 14.9933 12.16 15.2533 11.88 15.44C11.6133 15.6133 11.2533 15.7 10.8 15.7C10.3467 15.7 9.98 15.6067 9.7 15.42C9.43333 15.2333 9.3 14.9667 9.3 14.62V9.02H3.5V14.66C3.5 14.9933 3.36 15.2533 3.08 15.44C2.81333 15.6133 2.45333 15.7 2 15.7ZM22.6647 15.8C21.518 15.8 20.458 15.62 19.4847 15.26C18.5247 14.9 17.698 14.3867 17.0047 13.72C16.3114 13.0533 15.7714 12.2467 15.3847 11.3C14.998 10.3533 14.8047 9.28667 14.8047 8.1C14.8047 6.91333 14.998 5.84667 15.3847 4.9C15.7714 3.95333 16.3114 3.14667 17.0047 2.48C17.698 1.81333 18.5247 1.3 19.4847 0.939999C20.458 0.579999 21.518 0.399999 22.6647 0.399999C23.8114 0.399999 24.8647 0.579999 25.8247 0.939999C26.798 1.3 27.6314 1.81333 28.3247 2.48C29.018 3.14667 29.558 3.95333 29.9447 4.9C30.3314 5.84667 30.5247 6.91333 30.5247 8.1C30.5247 9.28667 30.3314 10.3533 29.9447 11.3C29.558 12.2467 29.018 13.0533 28.3247 13.72C27.6314 14.3867 26.798 14.9 25.8247 15.26C24.8647 15.62 23.8114 15.8 22.6647 15.8ZM22.6647 13.36C23.3447 13.36 23.978 13.24 24.5647 13C25.1647 12.7467 25.6847 12.3933 26.1247 11.94C26.5647 11.4733 26.9047 10.92 27.1447 10.28C27.398 9.62667 27.5247 8.9 27.5247 8.1C27.5247 7.3 27.398 6.58 27.1447 5.94C26.9047 5.28667 26.5647 4.73333 26.1247 4.28C25.6847 3.81333 25.1647 3.46 24.5647 3.22C23.978 2.96667 23.3447 2.84 22.6647 2.84C21.9847 2.84 21.3447 2.96667 20.7447 3.22C20.158 3.46 19.6447 3.81333 19.2047 4.28C18.7647 4.73333 18.418 5.28667 18.1647 5.94C17.9247 6.58 17.8047 7.3 17.8047 8.1C17.8047 8.9 17.9247 9.62667 18.1647 10.28C18.418 10.92 18.7647 11.4733 19.2047 11.94C19.6447 12.3933 20.158 12.7467 20.7447 13C21.3447 13.24 21.9847 13.36 22.6647 13.36ZM42.8195 14.28C42.6862 14.72 42.4529 15.0533 42.1195 15.28C41.7995 15.4933 41.4129 15.6 40.9595 15.6C40.5062 15.6 40.1129 15.4933 39.7795 15.28C39.4595 15.0533 39.2329 14.72 39.0995 14.28L35.9595 4.58L35.0795 14.68C35.0662 15.0667 34.9129 15.3533 34.6195 15.54C34.3262 15.74 33.9662 15.8267 33.5395 15.8C33.1129 15.7733 32.7862 15.6467 32.5595 15.42C32.3329 15.1933 32.2395 14.88 32.2795 14.48L33.5595 2.02C33.6129 1.55333 33.8062 1.16667 34.1395 0.859999C34.4729 0.553332 34.9595 0.399999 35.5995 0.399999C36.2395 0.399999 36.7195 0.539999 37.0395 0.819999C37.3595 1.08667 37.5929 1.45333 37.7395 1.92L40.9595 11.74L44.1795 1.92C44.3262 1.45333 44.5595 1.08667 44.8795 0.819999C45.1995 0.539999 45.6795 0.399999 46.3195 0.399999C46.9595 0.399999 47.4462 0.553332 47.7795 0.859999C48.1129 1.16667 48.3062 1.55333 48.3595 2.02L49.6395 14.52C49.6795 14.9067 49.5795 15.2067 49.3395 15.42C49.1129 15.6333 48.7862 15.76 48.3595 15.8C47.9062 15.84 47.5395 15.76 47.2595 15.56C46.9929 15.3733 46.8529 15.08 46.8395 14.68L45.9595 4.6L42.8195 14.28ZM54.9263 12.06C54.9263 12.3 54.9663 12.5 55.0463 12.66C55.1263 12.82 55.2596 12.9467 55.4463 13.04C55.6329 13.1333 55.8796 13.2 56.1863 13.24C56.5063 13.28 56.8996 13.3 57.3663 13.3C57.9663 13.3 58.5463 13.26 59.1063 13.18C59.6796 13.1 60.1729 13.0067 60.5863 12.9C60.9729 12.7933 61.2863 12.82 61.5263 12.98C61.7796 13.14 61.9529 13.3867 62.0463 13.72C62.1396 14.0667 62.1263 14.38 62.0063 14.66C61.8996 14.94 61.6796 15.1333 61.3463 15.24C60.8396 15.4133 60.2396 15.5467 59.5463 15.64C58.8529 15.7467 58.1263 15.8 57.3663 15.8C56.3796 15.8 55.5396 15.74 54.8463 15.62C54.1663 15.5133 53.6063 15.34 53.1663 15.1C52.7396 14.8467 52.4263 14.52 52.2263 14.12C52.0263 13.72 51.9263 13.2333 51.9263 12.66V2.4C51.9263 1.26667 52.4929 0.7 53.6263 0.7H60.4663C60.8129 0.7 61.0863 0.806666 61.2863 1.02C61.4996 1.23333 61.6063 1.52667 61.6063 1.9C61.6063 2.26 61.4996 2.55333 61.2863 2.78C61.0863 2.99333 60.8129 3.1 60.4663 3.1H54.9263V6.72H59.9063C60.2529 6.72 60.5263 6.82667 60.7263 7.04C60.9396 7.25333 61.0463 7.54667 61.0463 7.92C61.0463 8.28 60.9396 8.57333 60.7263 8.8C60.5263 9.01333 60.2529 9.12 59.9063 9.12H54.9263V12.06Z" fill="#FFDC70"/>
</svg>
