<?xml version="1.0" encoding="utf-8"?>
<!-- Generator: Adobe Illustrator 16.0.0, SVG Export Plug-In . SVG Version: 6.00 Build 0)  -->
<!DOCTYPE svg PUBLIC "-//W3C//DTD SVG 1.1//EN" "http://www.w3.org/Graphics/SVG/1.1/DTD/svg11.dtd">
<svg version="1.1" id="Layer_1" xmlns="http://www.w3.org/2000/svg" xmlns:xlink="http://www.w3.org/1999/xlink" x="0px" y="0px"
	 width="37.373px" height="35.674px" viewBox="0 0 37.373 35.674" enable-background="new 0 0 37.373 35.674" xml:space="preserve">
<g>
	<g>
		<path fill="#826BAF" d="M19.085,28.921c-6.833,0-12.393-5.561-12.393-12.394c0-6.833,5.559-12.393,12.393-12.393
			s12.395,5.559,12.395,12.393C31.479,23.36,25.919,28.921,19.085,28.921z M19.085,6.135c-5.73,0-10.393,4.662-10.393,10.393
			s4.662,10.394,10.393,10.394c5.73,0,10.395-4.662,10.395-10.394C29.479,10.797,24.817,6.135,19.085,6.135z"/>
	</g>
	<g>
		<path fill="#826BAF" d="M29.868,27.056c-0.863,0-1.86-0.106-2.989-0.32c-3.212-0.606-7.149-2.033-11.087-4.018
			c-3.938-1.984-7.429-4.299-9.829-6.518c-2.768-2.56-3.765-4.662-2.965-6.249c0.59-1.175,2.028-1.732,4.292-1.634
			c0.552,0.022,0.981,0.488,0.958,1.04c-0.022,0.552-0.492,0.974-1.04,0.958c-1.558-0.061-2.282,0.249-2.425,0.535
			C4.6,11.213,4.896,12.489,7.32,14.73c2.266,2.096,5.594,4.296,9.37,6.201c3.776,1.901,7.526,3.266,10.559,3.838
			c3.248,0.612,4.445,0.092,4.628-0.271c0.136-0.267-0.017-0.978-0.885-2.104c-0.337-0.438-0.257-1.064,0.182-1.401
			c0.438-0.339,1.067-0.257,1.402,0.182c1.29,1.677,1.655,3.097,1.087,4.226C33.108,26.501,31.836,27.056,29.868,27.056z"/>
	</g>
	<g>
		<circle fill="#826BAF" cx="15.109" cy="9.974" r="0.667"/>
	</g>
	<g>
		<path fill="#826BAF" d="M20.423,10.408c-1.806,0.11-1.895,0.199-2.003,2.005c-0.11-1.806-0.199-1.895-2.005-2.005
			c1.806-0.108,1.895-0.197,2.005-2.003C18.528,10.21,18.617,10.299,20.423,10.408z"/>
	</g>
	<g>
		<circle fill="#826BAF" cx="16.469" cy="12.135" r="0.317"/>
	</g>
</g>
</svg>
