<svg width="126" height="16" viewBox="0 0 126 16" fill="none" xmlns="http://www.w3.org/2000/svg">
<path d="M8.87325 5.48C8.87325 4.69333 8.67992 4.1 8.29325 3.7C7.91992 3.3 7.41325 3.1 6.77325 3.1H3.85325V7.86H6.77325C7.41325 7.86 7.91992 7.66 8.29325 7.26C8.67992 6.86 8.87325 6.26667 8.87325 5.48ZM11.8733 5.48C11.8733 7.04 11.4399 8.22667 10.5733 9.04C9.71992 9.85333 8.52659 10.26 6.99325 10.26H3.85325V14.44C3.85325 14.84 3.72659 15.1533 3.47325 15.38C3.21992 15.5933 2.84659 15.7 2.35325 15.7C1.85992 15.7 1.48659 15.5933 1.23325 15.38C0.979919 15.1533 0.853252 14.84 0.853252 14.44V2.4C0.853252 1.26667 1.41992 0.7 2.55325 0.7H6.99325C8.52659 0.7 9.71992 1.10667 10.5733 1.92C11.4399 2.73333 11.8733 3.92 11.8733 5.48ZM21.5331 15.8C20.3864 15.8 19.3264 15.62 18.3531 15.26C17.3931 14.9 16.5664 14.3867 15.8731 13.72C15.1798 13.0533 14.6398 12.2467 14.2531 11.3C13.8664 10.3533 13.6731 9.28667 13.6731 8.1C13.6731 6.91333 13.8664 5.84667 14.2531 4.9C14.6398 3.95333 15.1798 3.14667 15.8731 2.48C16.5664 1.81333 17.3931 1.3 18.3531 0.939999C19.3264 0.579999 20.3864 0.399999 21.5331 0.399999C22.6798 0.399999 23.7331 0.579999 24.6931 0.939999C25.6664 1.3 26.4998 1.81333 27.1931 2.48C27.8864 3.14667 28.4264 3.95333 28.8131 4.9C29.1998 5.84667 29.3931 6.91333 29.3931 8.1C29.3931 9.28667 29.1998 10.3533 28.8131 11.3C28.4264 12.2467 27.8864 13.0533 27.1931 13.72C26.4998 14.3867 25.6664 14.9 24.6931 15.26C23.7331 15.62 22.6798 15.8 21.5331 15.8ZM21.5331 13.36C22.2131 13.36 22.8464 13.24 23.4331 13C24.0331 12.7467 24.5531 12.3933 24.9931 11.94C25.4331 11.4733 25.7731 10.92 26.0131 10.28C26.2664 9.62667 26.3931 8.9 26.3931 8.1C26.3931 7.3 26.2664 6.58 26.0131 5.94C25.7731 5.28667 25.4331 4.73333 24.9931 4.28C24.5531 3.81333 24.0331 3.46 23.4331 3.22C22.8464 2.96667 22.2131 2.84 21.5331 2.84C20.8531 2.84 20.2131 2.96667 19.6131 3.22C19.0264 3.46 18.5131 3.81333 18.0731 4.28C17.6331 4.73333 17.2864 5.28667 17.0331 5.94C16.7931 6.58 16.6731 7.3 16.6731 8.1C16.6731 8.9 16.7931 9.62667 17.0331 10.28C17.2864 10.92 17.6331 11.4733 18.0731 11.94C18.5131 12.3933 19.0264 12.7467 19.6131 13C20.2131 13.24 20.8531 13.36 21.5331 13.36ZM40.8479 14.94C40.2879 13.3933 39.6546 12.1933 38.9479 11.34C38.2546 10.4867 37.4279 9.92667 36.4679 9.66H34.9079V14.44C34.9079 14.84 34.7813 15.1533 34.5279 15.38C34.2746 15.5933 33.9013 15.7 33.4079 15.7C32.9146 15.7 32.5413 15.5933 32.2879 15.38C32.0346 15.1533 31.9079 14.84 31.9079 14.44V2.4C31.9079 1.26667 32.4746 0.7 33.6079 0.7H37.7279C39.2479 0.7 40.4413 1.04 41.3079 1.72C42.1746 2.4 42.6079 3.48667 42.6079 4.98C42.6079 6.02 42.3679 6.86 41.8879 7.5C41.4079 8.14 40.8213 8.61333 40.1279 8.92C40.5279 9.13333 40.8946 9.41333 41.2279 9.76C41.5746 10.0933 41.8879 10.48 42.1679 10.92C42.4479 11.3467 42.6946 11.8067 42.9079 12.3C43.1346 12.78 43.3279 13.2667 43.4879 13.76C43.6079 14.1467 43.6079 14.5067 43.4879 14.84C43.3813 15.16 43.1279 15.4 42.7279 15.56C42.3146 15.72 41.9279 15.7467 41.5679 15.64C41.2213 15.5467 40.9813 15.3133 40.8479 14.94ZM34.9079 7.26H37.5079C38.1479 7.26 38.6546 7.1 39.0279 6.78C39.4146 6.44667 39.6079 5.91333 39.6079 5.18C39.6079 4.44667 39.4146 3.92 39.0279 3.6C38.6546 3.26667 38.1479 3.1 37.5079 3.1H34.9079V7.26ZM52.0268 3.1V14.44C52.0268 14.84 51.9002 15.1533 51.6468 15.38C51.3935 15.5933 51.0202 15.7 50.5268 15.7C50.0335 15.7 49.6602 15.5933 49.4068 15.38C49.1535 15.1533 49.0268 14.84 49.0268 14.44V3.1H45.4068C45.0602 3.1 44.7802 2.99333 44.5668 2.78C44.3668 2.56667 44.2668 2.27333 44.2668 1.9C44.2668 1.54 44.3668 1.25333 44.5668 1.04C44.7802 0.813333 45.0602 0.7 45.4068 0.7H55.6868C56.0335 0.7 56.3068 0.813333 56.5068 1.04C56.7202 1.25333 56.8268 1.54 56.8268 1.9C56.8268 2.27333 56.7202 2.56667 56.5068 2.78C56.3068 2.99333 56.0335 3.1 55.6868 3.1H52.0268ZM67.3415 0.7C67.6882 0.7 67.9615 0.806666 68.1615 1.02C68.3749 1.23333 68.4815 1.52667 68.4815 1.9C68.4815 2.26 68.3749 2.55333 68.1615 2.78C67.9615 2.99333 67.6882 3.1 67.3415 3.1H61.8415V7.12H66.6215C66.9682 7.12 67.2415 7.22667 67.4415 7.44C67.6549 7.65333 67.7615 7.94667 67.7615 8.32C67.7615 8.68 67.6549 8.97333 67.4415 9.2C67.2415 9.41333 66.9682 9.52 66.6215 9.52H61.8415V14.66C61.8415 14.9933 61.7015 15.2533 61.4215 15.44C61.1549 15.6133 60.7949 15.7 60.3415 15.7C59.8882 15.7 59.5215 15.6067 59.2415 15.42C58.9749 15.2333 58.8415 14.9667 58.8415 14.62V2.4C58.8415 1.26667 59.4082 0.7 60.5415 0.7H67.3415ZM77.744 15.8C76.5974 15.8 75.5374 15.62 74.564 15.26C73.604 14.9 72.7774 14.3867 72.084 13.72C71.3907 13.0533 70.8507 12.2467 70.464 11.3C70.0774 10.3533 69.884 9.28667 69.884 8.1C69.884 6.91333 70.0774 5.84667 70.464 4.9C70.8507 3.95333 71.3907 3.14667 72.084 2.48C72.7774 1.81333 73.604 1.3 74.564 0.939999C75.5374 0.579999 76.5974 0.399999 77.744 0.399999C78.8907 0.399999 79.944 0.579999 80.904 0.939999C81.8774 1.3 82.7107 1.81333 83.404 2.48C84.0974 3.14667 84.6374 3.95333 85.024 4.9C85.4107 5.84667 85.604 6.91333 85.604 8.1C85.604 9.28667 85.4107 10.3533 85.024 11.3C84.6374 12.2467 84.0974 13.0533 83.404 13.72C82.7107 14.3867 81.8774 14.9 80.904 15.26C79.944 15.62 78.8907 15.8 77.744 15.8ZM77.744 13.36C78.424 13.36 79.0574 13.24 79.644 13C80.244 12.7467 80.764 12.3933 81.204 11.94C81.644 11.4733 81.984 10.92 82.224 10.28C82.4774 9.62667 82.604 8.9 82.604 8.1C82.604 7.3 82.4774 6.58 82.224 5.94C81.984 5.28667 81.644 4.73333 81.204 4.28C80.764 3.81333 80.244 3.46 79.644 3.22C79.0574 2.96667 78.424 2.84 77.744 2.84C77.064 2.84 76.424 2.96667 75.824 3.22C75.2374 3.46 74.724 3.81333 74.284 4.28C73.844 4.73333 73.4974 5.28667 73.244 5.94C73.004 6.58 72.884 7.3 72.884 8.1C72.884 8.9 73.004 9.62667 73.244 10.28C73.4974 10.92 73.844 11.4733 74.284 11.94C74.724 12.3933 75.2374 12.7467 75.824 13C76.424 13.24 77.064 13.36 77.744 13.36ZM91.1189 12.06C91.1189 12.3 91.1589 12.5 91.2389 12.66C91.3189 12.82 91.4522 12.9467 91.6389 13.04C91.8255 13.1333 92.0722 13.2 92.3789 13.24C92.6989 13.28 93.0922 13.3 93.5589 13.3C94.1589 13.3 94.7389 13.26 95.2989 13.18C95.8722 13.1 96.3655 13.0067 96.7789 12.9C97.1655 12.7933 97.4789 12.82 97.7189 12.98C97.9722 13.14 98.1455 13.3867 98.2389 13.72C98.3322 14.0667 98.3189 14.38 98.1989 14.66C98.0922 14.94 97.8722 15.1333 97.5389 15.24C97.0322 15.4133 96.4322 15.5467 95.7389 15.64C95.0455 15.7467 94.3189 15.8 93.5589 15.8C92.5722 15.8 91.7322 15.74 91.0389 15.62C90.3589 15.5133 89.7989 15.34 89.3589 15.1C88.9322 14.8467 88.6189 14.52 88.4189 14.12C88.2189 13.72 88.1189 13.2333 88.1189 12.66V1.76C88.1189 1.36 88.2455 1.05333 88.4989 0.839999C88.7522 0.613332 89.1255 0.499999 89.6189 0.499999C90.1122 0.499999 90.4855 0.613332 90.7389 0.839999C90.9922 1.05333 91.1189 1.36 91.1189 1.76V12.06ZM102.065 13.1V3.1H100.685C100.339 3.1 100.059 2.99333 99.8454 2.78C99.6454 2.56667 99.5454 2.27333 99.5454 1.9C99.5454 1.52667 99.6454 1.23333 99.8454 1.02C100.059 0.806666 100.339 0.7 100.685 0.7H106.445C106.792 0.7 107.065 0.806666 107.265 1.02C107.479 1.23333 107.585 1.52667 107.585 1.9C107.585 2.27333 107.479 2.56667 107.265 2.78C107.065 2.99333 106.792 3.1 106.445 3.1H105.065V13.1H106.465C106.812 13.1 107.085 13.2067 107.285 13.42C107.499 13.6333 107.605 13.9267 107.605 14.3C107.605 14.66 107.499 14.9533 107.285 15.18C107.085 15.3933 106.812 15.5 106.465 15.5H100.665C100.319 15.5 100.039 15.3933 99.8254 15.18C99.6254 14.9533 99.5254 14.66 99.5254 14.3C99.5254 13.9267 99.6254 13.6333 99.8254 13.42C100.039 13.2067 100.319 13.1 100.665 13.1H102.065ZM117.158 15.8C116.011 15.8 114.951 15.62 113.978 15.26C113.018 14.9 112.191 14.3867 111.498 13.72C110.805 13.0533 110.265 12.2467 109.878 11.3C109.491 10.3533 109.298 9.28667 109.298 8.1C109.298 6.91333 109.491 5.84667 109.878 4.9C110.265 3.95333 110.805 3.14667 111.498 2.48C112.191 1.81333 113.018 1.3 113.978 0.939999C114.951 0.579999 116.011 0.399999 117.158 0.399999C118.305 0.399999 119.358 0.579999 120.318 0.939999C121.291 1.3 122.125 1.81333 122.818 2.48C123.511 3.14667 124.051 3.95333 124.438 4.9C124.825 5.84667 125.018 6.91333 125.018 8.1C125.018 9.28667 124.825 10.3533 124.438 11.3C124.051 12.2467 123.511 13.0533 122.818 13.72C122.125 14.3867 121.291 14.9 120.318 15.26C119.358 15.62 118.305 15.8 117.158 15.8ZM117.158 13.36C117.838 13.36 118.471 13.24 119.058 13C119.658 12.7467 120.178 12.3933 120.618 11.94C121.058 11.4733 121.398 10.92 121.638 10.28C121.891 9.62667 122.018 8.9 122.018 8.1C122.018 7.3 121.891 6.58 121.638 5.94C121.398 5.28667 121.058 4.73333 120.618 4.28C120.178 3.81333 119.658 3.46 119.058 3.22C118.471 2.96667 117.838 2.84 117.158 2.84C116.478 2.84 115.838 2.96667 115.238 3.22C114.651 3.46 114.138 3.81333 113.698 4.28C113.258 4.73333 112.911 5.28667 112.658 5.94C112.418 6.58 112.298 7.3 112.298 8.1C112.298 8.9 112.418 9.62667 112.658 10.28C112.911 10.92 113.258 11.4733 113.698 11.94C114.138 12.3933 114.651 12.7467 115.238 13C115.838 13.24 116.478 13.36 117.158 13.36Z" fill="#826BAF"/>
</svg>
