<svg width="187" height="24" viewBox="0 0 187 24" fill="none" xmlns="http://www.w3.org/2000/svg">
<path d="M12.31 7.97C12.31 6.79 12.02 5.9 11.44 5.3C10.88 4.7 10.12 4.4 9.16 4.4H4.78V11.54H9.16C10.12 11.54 10.88 11.24 11.44 10.64C12.02 10.04 12.31 9.15 12.31 7.97ZM16.81 7.97C16.81 10.31 16.16 12.09 14.86 13.31C13.58 14.53 11.79 15.14 9.49 15.14H4.78V21.41C4.78 22.01 4.59 22.48 4.21 22.82C3.83 23.14 3.27 23.3 2.53 23.3C1.79 23.3 1.23 23.14 0.85 22.82C0.47 22.48 0.28 22.01 0.28 21.41V3.35C0.28 1.65 1.13 0.8 2.83 0.8H9.49C11.79 0.8 13.58 1.41 14.86 2.63C16.16 3.85 16.81 5.63 16.81 7.97ZM31.2998 23.45C29.5798 23.45 27.9898 23.18 26.5298 22.64C25.0898 22.1 23.8498 21.33 22.8098 20.33C21.7698 19.33 20.9598 18.12 20.3798 16.7C19.7998 15.28 19.5098 13.68 19.5098 11.9C19.5098 10.12 19.7998 8.52 20.3798 7.1C20.9598 5.68 21.7698 4.47 22.8098 3.47C23.8498 2.47 25.0898 1.7 26.5298 1.16C27.9898 0.619998 29.5798 0.349998 31.2998 0.349998C33.0198 0.349998 34.5998 0.619998 36.0398 1.16C37.4998 1.7 38.7498 2.47 39.7898 3.47C40.8298 4.47 41.6398 5.68 42.2198 7.1C42.7998 8.52 43.0898 10.12 43.0898 11.9C43.0898 13.68 42.7998 15.28 42.2198 16.7C41.6398 18.12 40.8298 19.33 39.7898 20.33C38.7498 21.33 37.4998 22.1 36.0398 22.64C34.5998 23.18 33.0198 23.45 31.2998 23.45ZM31.2998 19.79C32.3198 19.79 33.2698 19.61 34.1498 19.25C35.0498 18.87 35.8298 18.34 36.4898 17.66C37.1498 16.96 37.6598 16.13 38.0198 15.17C38.3998 14.19 38.5898 13.1 38.5898 11.9C38.5898 10.7 38.3998 9.62 38.0198 8.66C37.6598 7.68 37.1498 6.85 36.4898 6.17C35.8298 5.47 35.0498 4.94 34.1498 4.58C33.2698 4.2 32.3198 4.01 31.2998 4.01C30.2798 4.01 29.3198 4.2 28.4198 4.58C27.5398 4.94 26.7698 5.47 26.1098 6.17C25.4498 6.85 24.9298 7.68 24.5498 8.66C24.1898 9.62 24.0098 10.7 24.0098 11.9C24.0098 13.1 24.1898 14.19 24.5498 15.17C24.9298 16.13 25.4498 16.96 26.1098 17.66C26.7698 18.34 27.5398 18.87 28.4198 19.25C29.3198 19.61 30.2798 19.79 31.2998 19.79ZM60.272 22.16C59.432 19.84 58.482 18.04 57.422 16.76C56.382 15.48 55.142 14.64 53.702 14.24H51.362V21.41C51.362 22.01 51.172 22.48 50.792 22.82C50.412 23.14 49.852 23.3 49.112 23.3C48.372 23.3 47.812 23.14 47.432 22.82C47.052 22.48 46.862 22.01 46.862 21.41V3.35C46.862 1.65 47.712 0.8 49.412 0.8H55.592C57.872 0.8 59.662 1.31 60.962 2.33C62.262 3.35 62.912 4.98 62.912 7.22C62.912 8.78 62.552 10.04 61.832 11C61.112 11.96 60.232 12.67 59.192 13.13C59.792 13.45 60.342 13.87 60.842 14.39C61.362 14.89 61.832 15.47 62.252 16.13C62.672 16.77 63.042 17.46 63.362 18.2C63.702 18.92 63.992 19.65 64.232 20.39C64.412 20.97 64.412 21.51 64.232 22.01C64.072 22.49 63.692 22.85 63.092 23.09C62.472 23.33 61.892 23.37 61.352 23.21C60.832 23.07 60.472 22.72 60.272 22.16ZM51.362 10.64H55.262C56.222 10.64 56.982 10.4 57.542 9.92C58.122 9.42 58.412 8.62 58.412 7.52C58.412 6.42 58.122 5.63 57.542 5.15C56.982 4.65 56.222 4.4 55.262 4.4H51.362V10.64ZM77.0404 4.4V21.41C77.0404 22.01 76.8504 22.48 76.4704 22.82C76.0904 23.14 75.5304 23.3 74.7904 23.3C74.0504 23.3 73.4904 23.14 73.1104 22.82C72.7304 22.48 72.5404 22.01 72.5404 21.41V4.4H67.1104C66.5904 4.4 66.1704 4.24 65.8504 3.92C65.5504 3.6 65.4004 3.16 65.4004 2.6C65.4004 2.06 65.5504 1.63 65.8504 1.31C66.1704 0.969999 66.5904 0.8 67.1104 0.8H82.5304C83.0504 0.8 83.4604 0.969999 83.7604 1.31C84.0804 1.63 84.2404 2.06 84.2404 2.6C84.2404 3.16 84.0804 3.6 83.7604 3.92C83.4604 4.24 83.0504 4.4 82.5304 4.4H77.0404ZM100.012 0.8C100.532 0.8 100.942 0.959999 101.242 1.28C101.562 1.6 101.722 2.04 101.722 2.6C101.722 3.14 101.562 3.58 101.242 3.92C100.942 4.24 100.532 4.4 100.012 4.4H91.7624V10.43H98.9324C99.4524 10.43 99.8624 10.59 100.162 10.91C100.482 11.23 100.642 11.67 100.642 12.23C100.642 12.77 100.482 13.21 100.162 13.55C99.8624 13.87 99.4524 14.03 98.9324 14.03H91.7624V21.74C91.7624 22.24 91.5524 22.63 91.1324 22.91C90.7324 23.17 90.1924 23.3 89.5124 23.3C88.8324 23.3 88.2824 23.16 87.8624 22.88C87.4624 22.6 87.2624 22.2 87.2624 21.68V3.35C87.2624 1.65 88.1124 0.8 89.8124 0.8H100.012ZM115.616 23.45C113.896 23.45 112.306 23.18 110.846 22.64C109.406 22.1 108.166 21.33 107.126 20.33C106.086 19.33 105.276 18.12 104.696 16.7C104.116 15.28 103.826 13.68 103.826 11.9C103.826 10.12 104.116 8.52 104.696 7.1C105.276 5.68 106.086 4.47 107.126 3.47C108.166 2.47 109.406 1.7 110.846 1.16C112.306 0.619998 113.896 0.349998 115.616 0.349998C117.336 0.349998 118.916 0.619998 120.356 1.16C121.816 1.7 123.066 2.47 124.106 3.47C125.146 4.47 125.956 5.68 126.536 7.1C127.116 8.52 127.406 10.12 127.406 11.9C127.406 13.68 127.116 15.28 126.536 16.7C125.956 18.12 125.146 19.33 124.106 20.33C123.066 21.33 121.816 22.1 120.356 22.64C118.916 23.18 117.336 23.45 115.616 23.45ZM115.616 19.79C116.636 19.79 117.586 19.61 118.466 19.25C119.366 18.87 120.146 18.34 120.806 17.66C121.466 16.96 121.976 16.13 122.336 15.17C122.716 14.19 122.906 13.1 122.906 11.9C122.906 10.7 122.716 9.62 122.336 8.66C121.976 7.68 121.466 6.85 120.806 6.17C120.146 5.47 119.366 4.94 118.466 4.58C117.586 4.2 116.636 4.01 115.616 4.01C114.596 4.01 113.636 4.2 112.736 4.58C111.856 4.94 111.086 5.47 110.426 6.17C109.766 6.85 109.246 7.68 108.866 8.66C108.506 9.62 108.326 10.7 108.326 11.9C108.326 13.1 108.506 14.19 108.866 15.17C109.246 16.13 109.766 16.96 110.426 17.66C111.086 18.34 111.856 18.87 112.736 19.25C113.636 19.61 114.596 19.79 115.616 19.79ZM135.678 17.84C135.678 18.2 135.738 18.5 135.858 18.74C135.978 18.98 136.178 19.17 136.458 19.31C136.738 19.45 137.108 19.55 137.568 19.61C138.048 19.67 138.638 19.7 139.338 19.7C140.238 19.7 141.108 19.64 141.948 19.52C142.808 19.4 143.548 19.26 144.168 19.1C144.748 18.94 145.218 18.98 145.578 19.22C145.958 19.46 146.218 19.83 146.358 20.33C146.498 20.85 146.478 21.32 146.298 21.74C146.138 22.16 145.808 22.45 145.308 22.61C144.548 22.87 143.648 23.07 142.608 23.21C141.568 23.37 140.478 23.45 139.338 23.45C137.858 23.45 136.598 23.36 135.558 23.18C134.538 23.02 133.698 22.76 133.038 22.4C132.398 22.02 131.928 21.53 131.628 20.93C131.328 20.33 131.178 19.6 131.178 18.74V2.39C131.178 1.79 131.368 1.33 131.748 1.01C132.128 0.669998 132.688 0.499998 133.428 0.499998C134.168 0.499998 134.728 0.669998 135.108 1.01C135.488 1.33 135.678 1.79 135.678 2.39V17.84ZM152.098 19.4V4.4H150.028C149.508 4.4 149.088 4.24 148.768 3.92C148.468 3.6 148.318 3.16 148.318 2.6C148.318 2.04 148.468 1.6 148.768 1.28C149.088 0.959999 149.508 0.8 150.028 0.8H158.668C159.188 0.8 159.598 0.959999 159.898 1.28C160.218 1.6 160.378 2.04 160.378 2.6C160.378 3.16 160.218 3.6 159.898 3.92C159.598 4.24 159.188 4.4 158.668 4.4H156.598V19.4H158.698C159.218 19.4 159.628 19.56 159.928 19.88C160.248 20.2 160.408 20.64 160.408 21.2C160.408 21.74 160.248 22.18 159.928 22.52C159.628 22.84 159.218 23 158.698 23H149.998C149.478 23 149.058 22.84 148.738 22.52C148.438 22.18 148.288 21.74 148.288 21.2C148.288 20.64 148.438 20.2 148.738 19.88C149.058 19.56 149.478 19.4 149.998 19.4H152.098ZM174.737 23.45C173.017 23.45 171.427 23.18 169.967 22.64C168.527 22.1 167.287 21.33 166.247 20.33C165.207 19.33 164.397 18.12 163.817 16.7C163.237 15.28 162.947 13.68 162.947 11.9C162.947 10.12 163.237 8.52 163.817 7.1C164.397 5.68 165.207 4.47 166.247 3.47C167.287 2.47 168.527 1.7 169.967 1.16C171.427 0.619998 173.017 0.349998 174.737 0.349998C176.457 0.349998 178.037 0.619998 179.477 1.16C180.937 1.7 182.187 2.47 183.227 3.47C184.267 4.47 185.077 5.68 185.657 7.1C186.237 8.52 186.527 10.12 186.527 11.9C186.527 13.68 186.237 15.28 185.657 16.7C185.077 18.12 184.267 19.33 183.227 20.33C182.187 21.33 180.937 22.1 179.477 22.64C178.037 23.18 176.457 23.45 174.737 23.45ZM174.737 19.79C175.757 19.79 176.707 19.61 177.587 19.25C178.487 18.87 179.267 18.34 179.927 17.66C180.587 16.96 181.097 16.13 181.457 15.17C181.837 14.19 182.027 13.1 182.027 11.9C182.027 10.7 181.837 9.62 181.457 8.66C181.097 7.68 180.587 6.85 179.927 6.17C179.267 5.47 178.487 4.94 177.587 4.58C176.707 4.2 175.757 4.01 174.737 4.01C173.717 4.01 172.757 4.2 171.857 4.58C170.977 4.94 170.207 5.47 169.547 6.17C168.887 6.85 168.367 7.68 167.987 8.66C167.627 9.62 167.447 10.7 167.447 11.9C167.447 13.1 167.627 14.19 167.987 15.17C168.367 16.13 168.887 16.96 169.547 17.66C170.207 18.34 170.977 18.87 171.857 19.25C172.757 19.61 173.717 19.79 174.737 19.79Z" fill="#826BAF" fill-opacity="0.3"/>
</svg>
